<svg width="1080" height="1080" viewBox="0 0 1080 1080" fill="none" xmlns="http://www.w3.org/2000/svg">
<g clip-path="url(#clip0_0_1)">
<rect width="1080" height="1080" fill="white"/>
<g filter="url(#filter0_d_0_1)">
<path fill-rule="evenodd" clip-rule="evenodd" d="M904.679 583.679C904.679 785.086 741.407 948.358 540 948.358C338.593 948.358 175.321 785.086 175.321 583.679C175.321 382.272 338.593 219 540 219C741.407 219 904.679 382.272 904.679 583.679ZM841.137 583.679C841.137 608.434 838.15 632.491 832.516 655.51H484.301L651.877 498.035H828.783C836.822 525.181 841.137 553.926 841.137 583.679ZM576.57 498.035H251.217C243.179 525.181 238.864 553.926 238.864 583.679C238.864 608.434 241.851 632.491 247.484 655.51H408.993L576.57 498.035ZM540 884.816C661.263 884.816 765.786 813.14 813.513 709.843H266.487C314.214 813.14 418.737 884.816 540 884.816ZM806.695 443.701H273.305C323.7 347.883 424.22 282.543 540 282.543C655.781 282.543 756.3 347.883 806.695 443.701Z" fill="#A092F7" fill-opacity="0.15" shape-rendering="crispEdges"/>
</g>
<g filter="url(#filter1_d_0_1)">
<mask id="mask0_0_1" style="mask-type:alpha" maskUnits="userSpaceOnUse" x="353" y="250" width="374" height="843">
<path fill-rule="evenodd" clip-rule="evenodd" d="M441.502 309.176C435.393 315.857 425.532 326.641 434.385 338.148C436.715 341.177 440.247 342.161 444.858 341.777C439.514 355.246 434.544 376.463 432.449 408.937C429.974 447.29 432.449 468.028 438.895 479.847C446.435 493.67 454.111 501.703 460.977 502.927C440.187 511.504 416.332 522.21 410.807 527.734C401.138 537.403 353.711 641.466 357.395 648.373C358.475 650.399 364.233 652.584 372.12 654.776L370.287 654.359L370.286 654.363C370.116 654.959 369.944 655.554 369.771 656.147C368.478 660.584 367.119 664.937 365.751 669.32L365.751 669.321C363.849 675.412 361.929 681.562 360.143 688.073C357.342 697.625 355.347 705.626 354.593 713.336C354.448 714.234 354.308 715.142 354.172 716.059C352.33 741.384 363.841 752.143 376.273 753.817C392.385 755.985 415.338 744.636 438.336 731.205C438.387 731.383 438.439 731.56 438.493 731.736C438.742 733.029 439.788 735.908 441.514 739.084C442.119 740.215 442.776 741.301 443.482 742.343C444.319 743.59 445.252 744.818 446.274 745.95C447.835 747.724 449.567 749.343 451.463 750.81C452.848 751.946 454.023 752.781 454.961 753.387C454.07 753.964 454.051 755.144 454.014 757.553C453.959 761.105 453.862 767.327 450.867 778.221C450.904 778.263 450.946 778.305 450.995 778.349C450.108 779.961 449.206 781.667 448.288 783.46C443.636 791.691 437.508 805.997 431.043 823.166C425.91 836.594 420.714 851.55 415.719 867.423C411.584 880.363 407.69 893.448 404.36 905.766C402.855 911.33 401.311 917.823 399.756 924.978C385.528 986.933 375.352 1082.58 375.352 1082.58H375.758C375.619 1085.09 375.631 1086.68 375.813 1087.18C376.948 1088.2 379.592 1088.69 382.525 1089.24L382.526 1089.24C385.55 1089.8 388.882 1090.42 391.188 1091.73C394.614 1093.67 397.34 1090.04 399.638 1082.58H426.493C427.804 1086.89 429.408 1087.18 431.504 1082.58H654.508C656.604 1087.18 658.207 1086.89 659.518 1082.58H697.727C700.025 1090.04 702.75 1093.67 706.177 1091.73C708.482 1090.43 711.815 1089.8 714.839 1089.24L714.84 1089.24C717.773 1088.69 720.416 1088.2 721.552 1087.18C721.734 1086.68 721.738 1085.09 721.583 1082.58H722.534C722.534 1082.58 708.721 967.467 693.065 909.45C690.669 900.57 687.734 891.194 684.48 881.682C677.595 861.294 669.193 840.422 661.416 822.328C651.793 799.757 643.274 781.703 640.076 775.023L640.113 774.997C639.829 774.145 639.545 773.332 639.269 772.542C638.203 769.489 637.256 766.778 636.89 763.486C636.765 762.36 636.752 761.009 636.739 759.677C636.711 756.707 636.683 753.832 635.413 753.767C636.734 752.879 637.943 751.863 639.049 750.736C639.096 750.689 639.144 750.641 639.192 750.593C644.01 745.775 646.898 738.158 647.715 734.454C668.783 746.403 689.344 755.808 704.137 753.817C716.57 752.143 728.081 741.384 726.239 716.06C726.103 715.142 725.963 714.234 725.818 713.336C725.064 705.626 723.069 697.626 720.268 688.073C718.482 681.562 716.562 675.412 714.66 669.321L714.66 669.321L714.66 669.32L714.66 669.32L714.66 669.32C713.292 664.938 711.934 660.587 710.641 656.153C710.468 655.558 710.295 654.96 710.124 654.362L710.123 654.359L694.39 657.94L719.311 652.056C722.688 650.982 728.244 646.899 723.455 639.163C721.553 636.091 718.49 627.999 714.515 617.501L714.515 617.501C705.979 594.957 693.242 561.318 678.791 542.468C658.899 516.521 632.102 503.977 612.513 499.114C612.656 499.14 612.801 499.164 612.946 499.186C628.141 501.488 639.422 471.558 641.495 456.364C647.02 415.844 638.709 368.46 618.963 337.047C616.629 333.333 614.433 329.721 612.335 326.269C609.814 322.121 607.434 318.206 605.127 314.63C616.43 312.762 619.535 306.621 618.033 288.745C615.11 253.964 574.054 247.873 548.026 251.049C524.69 253.897 480.831 265.283 442.829 307.715C442.416 308.177 441.97 308.665 441.502 309.176ZM650.939 672.668L651.644 671.169L652.567 669.093L653.291 667.644L653.006 667.712C652.159 669.306 651.479 670.962 650.939 672.668ZM414.421 664.405L420.638 665.821C418.72 665.366 416.633 664.894 414.421 664.405ZM429.735 673.227C430.464 673.081 431.25 672.905 432.091 672.702L429.203 672.096L429.735 673.227ZM605.982 407.726C605.893 410.75 605.757 413.692 605.595 416.53C605.494 416.447 605.392 416.364 605.29 416.28C605.551 413.564 605.782 410.7 605.982 407.726ZM475.083 449.339L475.042 448.914L475.111 449.054L475.083 449.339Z" fill="white"/>
</mask>
<g mask="url(#mask0_0_1)">
<g filter="url(#filter2_d_0_1)">
<path d="M540.154 493.645C511.991 494.349 481.48 500.395 469.745 503.33L477.666 423.211L608.802 428.493L611.105 501.027C599.957 498.386 568.317 492.941 540.154 493.645Z" fill="url(#paint0_radial_0_1)"/>
<path d="M410.807 527.734C418.543 519.998 462.225 502.102 483.099 494.121C508.423 486.753 589.003 494.121 608.802 498.265C628.602 502.409 657.61 514.841 678.791 542.468C699.972 570.096 717.469 629.494 723.455 639.163C728.244 646.899 722.688 650.982 719.311 652.056L653.006 667.712C645.178 682.446 651.65 702.408 650.243 718.822C648.862 734.938 644.257 751.975 629.523 756.579C614.788 761.184 575.189 764.407 542.497 764.407C509.805 764.407 473.429 761.644 461.457 756.579C449.485 751.514 441.266 742.766 437.974 729.873C432.767 709.479 442.579 693.497 430.607 668.632C419.095 664.028 361.078 655.279 357.395 648.373C353.711 641.466 401.138 537.403 410.807 527.734Z" fill="#786CD0"/>
<mask id="mask1_0_1" style="mask-type:alpha" maskUnits="userSpaceOnUse" x="438" y="694" width="58" height="68">
<path d="M492.768 698.562C487.536 685.281 436.593 709.613 438.434 731.254C438.434 732.789 441.658 741.383 447.183 746.909C452.709 752.435 456.392 754.277 457.313 754.737C459.615 755.198 493.505 765.143 492.768 760.723C491.847 755.198 498.754 713.757 492.768 698.562Z" fill="#413196"/>
</mask>
<g mask="url(#mask1_0_1)">
<g filter="url(#filter3_f_0_1)">
<path d="M453.803 733.556C448.571 720.275 436.593 709.613 438.435 731.254C438.435 732.789 442.579 742.305 447.183 746.909C451.788 751.514 456.546 754.123 456.853 754.737C457.006 753.509 477.389 762.381 476.652 757.96C475.731 752.435 459.789 748.751 453.803 733.556Z" fill="#413196"/>
</g>
</g>
<mask id="mask2_0_1" style="mask-type:alpha" maskUnits="userSpaceOnUse" x="590" y="698" width="58" height="68">
<path d="M592.851 702.34C598.083 689.059 649.783 711.455 647.941 733.096C647.706 735.859 644.718 745.067 639.192 750.593C633.667 756.119 628.602 756.579 627.681 757.039C625.379 757.5 592.115 768.922 592.852 764.501C593.772 758.976 586.866 717.535 592.851 702.34Z" fill="#413196"/>
</mask>
<g mask="url(#mask2_0_1)">
<g filter="url(#filter4_f_0_1)">
<path d="M631.817 737.334C637.048 724.053 649.027 713.391 647.185 735.032C647.185 736.567 643.041 746.083 638.436 750.687C633.832 755.292 629.074 757.901 628.767 758.515C628.613 757.287 608.23 766.158 608.967 761.738C609.888 756.213 625.831 752.529 631.817 737.334Z" fill="#413196"/>
</g>
</g>
<g filter="url(#filter5_f_0_1)">
<path d="M521.499 732.366C512.7 726.549 513.861 701.623 515.541 689.887L504.74 621.647L521.499 613.839H611.105L621.65 621.647C622.261 630.449 616.604 720.426 611.105 732.366C604.23 747.291 532.498 739.637 521.499 732.366Z" fill="#9287E8"/>
</g>
<path d="M493.689 501.948L495.07 467.414L572.887 475.702V504.251L555.39 544.77H530.065L493.689 501.948Z" fill="url(#paint1_linear_0_1)"/>
<g filter="url(#filter6_f_0_1)">
<path d="M429.686 617.983C431.896 624.981 431.835 653.744 431.528 667.251C431.528 668.786 431.988 672.408 433.83 674.618C435.672 676.829 444.113 679.069 444.42 679.683C444.574 678.456 441.934 671.671 441.197 667.251C440.276 661.726 436.593 638.243 436.593 623.969C436.593 609.694 430.607 605.55 424.621 589.895C419.544 576.618 421.398 572.858 420.477 578.844C419.556 584.83 426.923 609.234 429.686 617.983Z" fill="#413196"/>
</g>
<g filter="url(#filter7_f_0_1)">
<path d="M432.988 619.321C435.198 626.32 433.295 650.061 432.988 663.568C432.988 665.103 435.29 673.747 437.132 675.957C438.974 678.167 440.048 679.948 440.355 680.562C440.509 679.334 454.827 676.276 454.09 671.856C453.169 666.33 451.788 664.489 445.802 649.294C440.57 636.013 441.276 616.601 437.132 600.025C432.988 583.449 426.002 578.844 425.081 584.83C424.16 590.816 430.225 610.573 432.988 619.321Z" fill="#413196"/>
</g>
<g filter="url(#filter8_f_0_1)">
<path d="M429.686 615.22C428.581 609.694 422.165 588.36 419.095 578.384C415.872 580.225 416.333 607.853 418.175 615.22C419.648 621.114 416.026 640.391 415.412 652.977L430.607 667.712C430.607 652.824 430.791 620.745 429.686 615.22Z" fill="url(#paint2_linear_0_1)"/>
</g>
<g filter="url(#filter9_f_0_1)">
<path d="M653.494 617.983C651.283 624.981 651.345 653.744 651.652 667.251C651.652 668.786 651.191 672.408 649.35 674.618C647.508 676.829 639.066 679.069 638.759 679.683C638.606 678.456 641.246 671.671 641.982 667.251C642.903 661.726 646.587 638.243 646.587 623.969C646.587 609.694 652.573 605.55 658.559 589.895C663.635 576.618 661.782 572.858 662.703 578.844C663.624 584.83 656.256 609.234 653.494 617.983Z" fill="#413196"/>
</g>
<g filter="url(#filter10_f_0_1)">
<path d="M650.191 619.321C647.981 626.32 649.884 650.061 650.191 663.568C650.191 665.103 647.889 673.747 646.047 675.957C644.205 678.167 643.131 679.948 642.824 680.562C642.671 679.334 628.353 676.276 629.09 671.856C630.01 666.33 631.392 664.489 637.378 649.294C642.609 636.013 641.903 616.601 646.047 600.025C650.191 583.449 657.177 578.844 658.098 584.83C659.019 590.816 652.954 610.573 650.191 619.321Z" fill="#413196"/>
</g>
<g filter="url(#filter11_f_0_1)">
<path d="M653.494 615.22C654.599 609.694 661.014 588.36 664.084 578.384C667.307 580.225 666.847 607.853 665.005 615.22C663.531 621.114 667.154 640.391 667.768 652.977L652.573 667.712C652.573 652.824 652.388 620.745 653.494 615.22Z" fill="url(#paint3_linear_0_1)"/>
</g>
<g filter="url(#filter12_f_0_1)">
<path d="M482.811 509.405C471.76 516.773 497.748 565.035 513.488 579.304C520.31 582.992 530.986 570.095 528.683 561.807C526.802 555.035 486.782 506.758 482.811 509.405Z" fill="#413196" fill-opacity="0.62"/>
</g>
<g filter="url(#filter13_f_0_1)">
<path d="M594.425 508.951C604.425 515.673 580.909 559.708 566.666 572.727C560.493 576.092 550.833 564.325 552.916 556.763C554.618 550.584 590.832 506.535 594.425 508.951Z" fill="#413196" fill-opacity="0.62"/>
</g>
<path d="M589.463 502.869C592.042 488.871 583.017 478.772 577.492 476.163L571.506 478.005C574.268 480.307 575.089 486.655 573.347 498.265C571.137 512.999 550.325 539.245 549.404 540.626C548.667 541.731 561.069 551.217 565.52 558.124C571.813 547.073 586.885 516.867 589.463 502.869Z" fill="url(#paint4_linear_0_1)"/>
<path d="M494.149 496.423C488.624 489.424 492.768 482.302 494.61 480.767V473.861L503.359 466.493C499.368 467.107 490.005 470.453 484.48 478.926C477.573 489.516 483.099 502.409 496.912 523.129C507.963 539.706 524.232 554.9 530.986 560.426L533.748 539.706C522.851 528.194 499.675 503.422 494.149 496.423Z" fill="url(#paint5_linear_0_1)"/>
<path d="M480.01 452.827C463.495 431.287 464.912 381.968 467.903 360.129L468.342 322.686L541.041 298.453C558.094 301.445 593.816 310.48 600.278 322.686C608.356 337.944 608.356 399.873 603.868 427.696C599.38 455.52 579.635 482.445 547.324 486.933C515.013 491.421 500.653 479.753 480.01 452.827Z" fill="url(#paint6_linear_0_1)"/>
<g filter="url(#filter14_f_0_1)">
<path d="M478.922 407.951C476.768 392.873 475.033 364.571 474.434 352.305C474.202 347.817 479.199 345.2 480.717 360.382C487.897 432.184 502.258 416.926 506.745 439.364C511.233 461.802 508.54 457.315 506.745 461.803C504.95 466.29 491.487 454.622 487.897 446.545C484.307 438.467 481.614 426.799 478.922 407.951Z" fill="#F7C5BE"/>
</g>
<g filter="url(#filter15_f_0_1)">
<path d="M560.516 396.444L557.298 402.879C556.53 404.415 555.243 405.629 553.664 406.306C548.873 408.359 543.543 404.845 543.543 399.632V352.627C543.543 346.497 547.827 341.161 553.917 340.468C563.127 339.421 574.7 339.143 582.137 342.118C595.6 347.503 600.087 362.761 600.087 372.634V420.202C600.087 432.768 590.215 447.128 582.137 453.411C574.059 459.693 582.137 441.743 584.83 431.87C587.522 421.997 589.317 406.739 590.215 390.584C590.862 378.932 586.208 372.727 583.094 370.522C582.484 370.091 581.78 369.833 581.064 369.622C577.724 368.639 571.884 366.993 568.674 366.351C565.568 365.73 562.686 373.574 561.19 379.188C560.766 380.78 560.732 382.445 560.995 384.072L561.721 388.552C562.157 391.244 561.735 394.005 560.516 396.444Z" fill="#FFDAD5"/>
</g>
<g filter="url(#filter16_d_0_1)">
<path d="M537.432 400.188C500.271 402.267 478.159 413.214 470.609 417.204C468.954 418.079 467.762 419.765 467.757 421.638C467.692 446.098 492.499 491.697 539.734 489.056C583.804 486.591 606.971 455.313 607.855 420.671C607.889 419.35 607.376 418.073 606.383 417.201C595.653 407.78 571.024 398.31 537.432 400.188Z" fill="url(#paint7_radial_0_1)"/>
</g>
<g filter="url(#filter17_f_0_1)">
<path d="M539.274 401.57C501.114 403.704 482.465 425.513 476.494 431.987C475.6 432.957 475.421 434.762 476.357 435.691C481.777 441.075 500.391 455.73 540.732 453.474C578.095 451.384 598.729 439.445 604.627 435.477C605.61 434.815 605.697 433.471 604.866 432.625L604.66 432.415C594.112 421.663 572.572 399.708 539.274 401.57Z" fill="#686868"/>
</g>
<g filter="url(#filter18_d_0_1)">
<path d="M432.449 408.937C436.757 342.161 453.221 322.985 460.102 320.891C475.345 296.658 498.695 278.707 528.313 277.81C552.008 277.092 562.719 293.068 565.112 301.145C589.345 281.4 599.218 305.633 618.963 337.046C638.709 368.46 647.02 415.843 641.495 456.363C639.422 471.558 628.141 501.488 612.946 499.186C593.607 496.255 601.874 464.397 604.603 430.389C607.268 397.18 611.783 336.149 563.317 308.326C524.544 286.067 485.803 321.789 469.947 343.329C460.102 390.898 488.822 483.053 469.947 500.106C461.289 507.928 449.946 500.106 438.895 479.847C432.449 468.028 429.974 447.29 432.449 408.937Z" fill="#161616"/>
</g>
<g filter="url(#filter19_f_0_1)">
<path d="M437.513 410.779C441.822 344.003 456.878 324.005 463.759 321.911C479.002 297.678 498.695 278.707 528.313 277.81C552.008 277.092 562.718 293.068 565.112 301.145C589.345 281.4 594.582 307.534 614.328 338.948C634.073 370.361 637.35 418.902 637.35 431.499C637.35 463.731 627.22 501.304 611.565 495.041C598.102 489.656 609.063 457.326 609.063 423.209C609.063 389.103 611.783 336.149 563.317 308.326C524.544 286.067 482.213 319.994 466.356 341.534C457.381 401.668 479.966 481.777 469.947 496.806C462.766 507.576 454.235 492.8 448.564 483.53C437.296 465.112 435.396 443.606 437.513 410.779Z" fill="#414141"/>
</g>
<g filter="url(#filter20_f_0_1)">
<path d="M445.341 408.937C449.649 342.161 453.221 322.985 460.102 320.891C475.344 296.658 498.695 278.707 528.313 277.81C552.008 277.092 562.718 293.068 565.112 301.145C589.345 281.4 592.28 310.121 612.025 341.534C631.771 372.947 631.825 419.362 631.825 431.959C631.825 457.284 622.796 492.646 612.025 489.056C601.255 485.465 617.14 453.736 617.14 419.619C617.14 385.513 613.578 333.456 565.112 305.633C526.339 283.375 475.958 319.994 460.102 341.534C450.201 403.463 474.99 482.913 464.22 494.581C462.518 496.425 460.997 490.437 451.787 471.098C442.08 450.712 445.163 422.795 445.341 408.937Z" fill="#525252"/>
</g>
<g filter="url(#filter21_d_0_1)">
<path d="M434.385 338.148C424.854 325.76 437.013 314.21 442.829 307.715C480.831 265.282 524.69 253.897 548.026 251.049C574.054 247.873 615.11 253.963 618.033 288.745C620.955 323.527 606.437 313.881 548.026 314.773C489.615 315.665 446.298 353.633 434.385 338.148Z" fill="url(#paint8_linear_0_1)"/>
</g>
<g filter="url(#filter22_d_0_1)">
<path d="M487.358 367.183C485.481 365.281 486.576 362.692 487.358 361.636C489.119 359.258 498.312 353.711 505.353 351.334C512.395 348.957 514.318 351.992 514.742 353.711C515.525 356.881 512.585 358.93 509.265 360.051C504.571 361.636 501.441 363.221 496.747 366.39C492.053 369.56 489.706 369.56 487.358 367.183Z" fill="url(#paint9_linear_0_1)"/>
</g>
<g filter="url(#filter23_d_0_1)">
<path d="M585.795 365.92C587.584 363.969 586.351 361.508 585.511 360.521C583.62 358.3 574.1 353.388 566.904 351.448C559.707 349.507 557.931 352.563 557.593 354.258C556.97 357.385 560.028 359.224 563.421 360.138C568.218 361.432 571.443 362.809 576.322 365.646C581.201 368.482 583.559 368.358 585.795 365.92Z" fill="url(#paint10_linear_0_1)"/>
</g>
<rect x="501.652" y="375.566" width="10.7703" height="18.499" rx="5.38514" transform="rotate(-9.19414 501.652 375.566)" fill="url(#paint11_linear_0_1)"/>
<g filter="url(#filter24_f_0_1)">
<rect x="507.806" y="377.902" width="3.70024" height="11.9204" rx="1.85012" transform="rotate(-9.19414 507.806 377.902)" fill="#606060"/>
</g>
<rect x="565.615" y="373.712" width="10.7703" height="18.499" rx="5.38514" transform="rotate(5.80586 565.615 373.712)" fill="url(#paint12_linear_0_1)"/>
<g filter="url(#filter25_f_0_1)">
<rect x="570.954" y="377.561" width="3.70024" height="11.9204" rx="1.85012" transform="rotate(5.80586 570.954 377.561)" fill="#606060"/>
</g>
<g filter="url(#filter26_f_0_1)">
<path d="M496.452 500.107L497.373 478.465L500.135 479.386L503.358 508.395L496.452 500.107Z" fill="#F4BEB5"/>
</g>
<g filter="url(#filter27_f_0_1)">
<path d="M524.593 432.63L526.26 410.626C526.534 407.017 522.954 404.165 519.431 404.994C503.314 408.786 476.145 413.26 479.661 427.513C479.784 428.011 480.019 428.489 480.334 428.894C483.671 433.19 492.57 440.708 505.2 440.708C517.391 440.708 522.733 436.557 524.232 433.98C524.469 433.571 524.558 433.101 524.593 432.63Z" fill="#5F5F5F"/>
</g>
<g filter="url(#filter28_f_0_1)">
<path d="M556.2 432.807L553.069 410.702C552.611 407.472 555.315 404.637 558.563 404.943C573.586 406.357 597.721 409.344 600.328 426.533C600.498 427.652 600.177 428.791 599.445 429.653C595.743 434.018 587.231 440.708 575.43 440.708C563.122 440.708 557.862 436.395 556.498 433.831C556.33 433.515 556.25 433.162 556.2 432.807Z" fill="#5F5F5F"/>
</g>
<g filter="url(#filter29_f_0_1)">
<path d="M535.13 428.268L538.928 403.872H541.691C542.842 410.236 546.181 427.419 546.181 428.268C546.181 429.116 538.583 428.621 535.13 428.268Z" fill="#737373"/>
</g>
<g filter="url(#filter30_f_0_1)">
<path d="M382.443 600.025C387.969 582.344 406.847 549.068 415.596 534.641C410.684 546.152 399.204 573.042 392.573 588.514C384.285 607.853 366.788 649.294 364.946 646.991C363.104 644.689 375.536 622.127 382.443 600.025Z" fill="#9287E8"/>
</g>
<g filter="url(#filter31_f_0_1)">
<path d="M462.378 507.013C453.906 510.697 429.532 521.441 418.635 526.813C415.828 528.194 410.347 534.18 425.542 534.18C440.737 534.18 472.969 502.409 462.378 507.013Z" fill="#A092F7"/>
</g>
<g filter="url(#filter32_d_0_1)">
<path d="M430.607 668.172L376.273 655.74L375.352 660.805L432.449 672.777L430.607 668.172Z" fill="#D3988D"/>
</g>
<g filter="url(#filter33_f_0_1)">
<path d="M604.658 503.33C618.932 501.488 673.726 532.338 678.331 543.85C681.15 545.237 730.362 644.689 715.628 644.689C708.188 644.689 684.777 565.03 659.913 542.008C642.876 519.445 598.813 504.084 604.658 503.33Z" fill="#A092F7"/>
</g>
<g filter="url(#filter34_d_0_1)">
<path d="M354.172 716.059C357.855 691.195 364.762 673.698 370.287 654.359L426.923 667.251L427.844 669.093L429.686 673.237C440.43 671.088 463.944 662.463 486.782 654.359C515.33 644.229 510.726 612.457 509.805 586.211C508.884 559.966 523.158 541.087 529.144 527.734C535.13 514.381 539.12 526.046 539.274 532.338V650.675C538.353 666.33 507.503 689.814 471.127 711.455C439.272 730.406 400.217 757.04 376.273 753.817C363.841 752.143 352.33 741.384 354.172 716.059Z" fill="url(#paint13_linear_0_1)"/>
<path d="M404.821 682.446L430.607 675.079L426.923 667.251L406.663 662.647L404.821 682.446Z" fill="url(#paint14_linear_0_1)"/>
<path d="M485.861 655.279C506.121 648.281 511.186 627.192 511.186 617.522C519.168 625.964 532.367 647.175 521.316 664.488C510.266 681.802 429.226 690.274 419.556 690.274C409.753 690.274 394.231 689.353 381.799 691.655C369.367 693.957 408.045 680.144 408.045 680.144C426.463 674.618 465.601 662.278 485.861 655.279Z" fill="url(#paint15_linear_0_1)"/>
<g filter="url(#filter35_f_0_1)">
<path d="M490.005 656.661C509.874 648.619 511.186 627.192 511.186 617.522C519.167 625.964 532.367 647.175 521.316 664.488C510.265 681.802 401.599 769.932 367.525 750.593C360.158 744.147 354.302 737.064 357.855 719.743C361.633 701.325 376.427 689.199 394.231 684.288C416.333 678.191 470.666 664.488 490.005 656.661Z" fill="url(#paint16_linear_0_1)"/>
</g>
<path d="M396.073 660.805L370.287 654.359C358.776 694.418 350.488 710.994 356.013 734.938C356.013 734.938 379.036 693.958 389.166 690.734C399.296 687.511 396.073 660.805 396.073 660.805Z" fill="url(#paint17_linear_0_1)"/>
<g filter="url(#filter36_f_0_1)">
<path d="M360.158 734.478C359.421 737.424 375.66 699.33 379.497 691.655C379.497 691.655 377.194 689.814 375.583 687.511C373.971 685.209 373.511 677.381 373.511 677.381C375.046 665.563 372.636 655.822 364.532 685.659C354.402 722.956 361.078 730.794 360.158 734.478Z" fill="#F6C6BF"/>
</g>
<g filter="url(#filter37_di_0_1)">
<path d="M508.345 688.39C500.629 671.011 489.516 661.737 481.692 657.643C479.953 656.732 479.85 653.554 481.616 652.696C490.928 648.169 503.439 640.115 506.121 630.875C510.265 616.601 507.963 597.723 507.963 585.751C507.963 573.779 510.726 563.649 513.028 557.203C515.33 550.756 529.604 518.985 533.748 519.906C537.892 520.827 538.813 523.129 540.195 529.115C541.576 535.101 542.497 640.545 540.195 655.279C538.476 666.277 521.395 681.602 511.385 689.217C510.353 690.002 508.871 689.575 508.345 688.39Z" fill="white"/>
</g>
<g filter="url(#filter38_f_0_1)">
<path d="M500.596 667.712C496.745 662.461 487.6 656.933 483.276 654.684C482.894 654.486 482.433 654.564 482.128 654.868L481.668 655.329C481.219 655.778 481.294 656.526 481.821 656.88C485.724 659.508 492.878 664.722 496.912 669.093C501.015 673.538 505.964 682.294 508.372 686.965C508.648 687.499 509.326 687.677 509.826 687.343L510.923 686.612C511.338 686.336 511.487 685.797 511.263 685.351C509.065 680.966 504.409 672.912 500.596 667.712Z" fill="#F5F5F5"/>
</g>
<path d="M537.432 521.748L537.432 521.748L534.209 569.635L519.014 582.528C519.014 553.519 528.399 530.427 530.525 524.05C532.827 517.143 536.511 520.827 537.432 521.748Z" fill="url(#paint18_linear_0_1)"/>
<path d="M533.288 526.813C534.393 520.182 536.972 521.287 537.893 522.208V569.635L529.604 582.067C527.763 555.821 532.183 533.443 533.288 526.813Z" fill="url(#paint19_linear_0_1)"/>
<path d="M726.239 716.059C722.555 691.195 715.649 673.698 710.123 654.359L653.488 667.251L652.567 669.093L650.725 673.237C639.981 671.088 616.467 662.463 593.629 654.359C565.08 644.229 569.685 612.457 570.606 586.211C571.527 559.966 557.253 541.087 551.267 527.734C545.281 514.381 541.29 526.046 541.137 532.338V650.675C542.058 666.33 572.908 689.814 609.284 711.455C641.139 730.406 680.194 757.04 704.137 753.817C716.57 752.143 728.081 741.384 726.239 716.059Z" fill="url(#paint20_linear_0_1)"/>
<path d="M675.589 682.446L649.804 675.079L653.488 667.251L673.747 662.647L675.589 682.446Z" fill="url(#paint21_linear_0_1)"/>
<path d="M594.549 655.279C574.289 648.281 569.224 627.192 569.224 617.522C561.243 625.964 548.043 647.175 559.094 664.488C570.145 681.802 651.185 690.274 660.855 690.274C670.657 690.274 686.18 689.353 698.612 691.655C711.044 693.957 672.366 680.144 672.366 680.144C653.948 674.618 614.809 662.278 594.549 655.279Z" fill="url(#paint22_linear_0_1)"/>
<g filter="url(#filter39_f_0_1)">
<path d="M590.405 656.661C570.536 648.619 569.224 627.192 569.224 617.522C561.243 625.964 548.044 647.175 559.094 664.488C570.145 681.802 678.812 769.932 712.886 750.593C720.253 744.147 726.108 737.064 722.555 719.743C718.777 701.325 703.984 689.199 686.18 684.288C664.078 678.191 609.744 664.488 590.405 656.661Z" fill="url(#paint23_linear_0_1)"/>
</g>
<path d="M684.338 660.805L710.123 654.359C721.635 694.418 729.923 710.994 724.397 734.938C724.397 734.938 701.375 693.958 691.245 690.734C681.115 687.511 684.338 660.805 684.338 660.805Z" fill="url(#paint24_linear_0_1)"/>
<g filter="url(#filter40_f_0_1)">
<path d="M720.253 734.478C720.99 737.425 704.751 699.33 700.914 691.656C700.914 691.656 703.216 689.814 704.828 687.512C706.44 685.209 706.9 677.381 706.9 677.381C705.365 665.563 707.775 655.822 715.879 685.659C726.009 722.956 719.332 730.794 720.253 734.478Z" fill="#F6C6BF"/>
</g>
<g filter="url(#filter41_di_0_1)">
<path d="M572.066 688.39C579.782 671.011 590.895 661.737 598.719 657.643C600.458 656.732 600.561 653.554 598.795 652.696C589.483 648.169 576.972 640.115 574.29 630.875C570.145 616.601 572.448 597.723 572.448 585.751C572.448 573.779 569.685 563.649 567.383 557.203C565.08 550.757 550.806 518.985 546.662 519.906C542.518 520.827 541.597 523.129 540.216 529.115C538.835 535.101 537.914 640.545 540.216 655.28C541.934 666.277 559.016 681.602 569.026 689.217C570.058 690.002 571.54 689.575 572.066 688.39Z" fill="white"/>
</g>
<g filter="url(#filter42_f_0_1)">
<path d="M579.815 667.712C583.665 662.461 592.81 656.933 597.135 654.684C597.517 654.486 597.978 654.564 598.282 654.868L598.743 655.329C599.192 655.778 599.116 656.526 598.59 656.88C594.687 659.508 587.533 664.722 583.499 669.093C579.396 673.538 574.446 682.294 572.038 686.965C571.763 687.499 571.085 687.677 570.584 687.343L569.488 686.612C569.073 686.336 568.924 685.797 569.147 685.351C571.346 680.966 576.002 672.912 579.815 667.712Z" fill="#F5F5F5"/>
</g>
<path d="M542.979 521.748L542.979 521.748L546.202 569.635L561.397 582.528C561.397 553.519 552.011 530.427 549.886 524.05C547.583 517.143 543.9 520.827 542.979 521.748Z" fill="url(#paint25_linear_0_1)"/>
<path d="M547.123 526.813C546.018 520.182 543.439 521.287 542.518 522.208V569.635L550.806 582.067C552.648 555.821 548.228 533.443 547.123 526.813Z" fill="url(#paint26_linear_0_1)"/>
</g>
<path d="M402.519 913.594C418.175 852.814 439.509 796.485 454.55 772.234H638.732C638.732 772.234 677.41 851.432 693.065 909.449C708.721 967.467 722.534 1082.58 722.534 1082.58H375.352C375.352 1082.58 386.864 974.373 402.519 913.594Z" fill="#8175D8"/>
<g opacity="0.5">
<mask id="mask3_0_1" style="mask-type:alpha" maskUnits="userSpaceOnUse" x="375" y="772" width="348" height="311">
<path d="M402.519 913.594C418.175 852.814 439.509 796.485 454.55 772.234H638.732C638.732 772.234 677.41 851.432 693.065 909.449C708.721 967.467 722.534 1082.58 722.534 1082.58H375.352C375.352 1082.58 386.864 974.373 402.519 913.594Z" fill="#8175D8"/>
</mask>
<g mask="url(#mask3_0_1)">
<g filter="url(#filter43_f_0_1)">
<path d="M417.714 950.43C427.384 894.715 432.909 858.339 451.327 778.681C440.899 792.556 417.938 855.537 404.36 905.766C390.781 955.994 373.903 1081.9 375.813 1087.18C378.119 1089.24 386.646 1089.16 391.188 1091.73C405.664 1099.94 407.628 1008.54 417.714 950.43Z" fill="#413196"/>
</g>
<g filter="url(#filter44_f_0_1)">
<path d="M679.651 950.43C669.981 894.715 658.531 855.116 640.113 775.458C648.862 793.876 678.566 856.458 692.144 906.687C705.723 956.915 723.462 1081.9 721.552 1087.18C719.245 1089.24 710.718 1089.16 706.177 1091.73C691.701 1099.94 689.736 1008.54 679.651 950.43Z" fill="#413196"/>
</g>
</g>
</g>
<g filter="url(#filter45_f_0_1)">
<path d="M450.867 1065.12C440.934 1058.05 448.97 995.086 450.867 980.82L477.113 788.35L547.102 796.178L618.472 788.35L670.043 1058.64C670.732 1069.34 566.663 1050.61 560.455 1065.12C552.695 1083.27 463.282 1073.96 450.867 1065.12Z" fill="#9287E8"/>
</g>
<g filter="url(#filter46_f_0_1)">
<path d="M544.799 755.658C490.926 755.658 449.946 724.347 455.011 753.356C471.127 759.802 492.768 763.946 544.799 763.946C596.83 763.946 630.443 757.039 635.048 753.816C636.429 751.054 631.446 750.584 632.746 745.528C636.89 729.412 603.782 755.658 544.799 755.658Z" fill="#413196"/>
</g>
<g filter="url(#filter47_d_0_1)">
<path d="M450.867 778.22C455.932 759.802 452.709 754.737 455.011 753.356C455.011 753.356 474.35 764.801 545.26 763.946C616.17 763.092 631.365 754.921 635.048 753.816C637.35 753.126 636.461 759.627 636.89 763.486C637.35 767.63 638.732 770.853 640.113 774.997C634.127 779.141 591.98 788.31 545.26 789.271C501.117 790.18 454.09 781.904 450.867 778.22Z" fill="url(#paint27_linear_0_1)"/>
</g>
<g filter="url(#filter48_f_0_1)">
<path d="M457.774 761.644C458.234 764.867 455.932 775.918 455.471 776.379C457.313 780.062 461.918 773.155 464.22 769.472C466.522 765.788 499.214 773.616 532.367 773.616C565.52 773.616 614.328 770.853 612.486 763.025C611.565 760.262 568.282 770.331 507.042 766.249C483.593 764.685 457.313 758.421 457.774 761.644Z" fill="#585858"/>
</g>
<g filter="url(#filter49_f_0_1)">
<path d="M424.368 1070.32C430.436 962.093 448.822 844.099 462.413 785.059C476.77 776.916 456.186 870.597 449.985 942.691C445.033 1000.27 441.56 1046.56 435.803 1069.01C429.732 1092.68 426.634 1089.99 424.368 1070.32Z" fill="#A092F7"/>
</g>
<g filter="url(#filter50_f_0_1)">
<path d="M661.644 1070.32C655.575 962.093 637.19 844.099 623.599 785.059C609.242 776.916 629.826 870.597 636.027 942.691C640.979 1000.27 644.452 1046.56 650.209 1069.01C656.28 1092.68 659.378 1089.99 661.644 1070.32Z" fill="#A092F7"/>
</g>
<g filter="url(#filter51_f_0_1)">
<path d="M711.179 1066.92C708.6 961.573 663.138 837.005 640.729 787.89C625.534 781.444 640.729 799.401 662.371 863.865C684.012 928.328 700.588 1032.39 701.97 1056.79C703.351 1081.2 711.179 1086.72 711.179 1066.92Z" fill="#413196" fill-opacity="0.35"/>
</g>
<g filter="url(#filter52_d_0_1)">
<path fill-rule="evenodd" clip-rule="evenodd" d="M469.487 443.723C472.302 438.433 472.319 431.95 469.487 429.161C465.708 425.44 460.123 426.499 455.801 430.888C451.479 435.277 451.039 441.852 454.818 445.574C458.598 449.295 466.673 449.013 469.487 443.723ZM468.233 441.647C470.331 437.705 470.343 432.874 468.233 430.797C465.417 428.023 461.256 428.812 458.035 432.083C454.814 435.353 454.486 440.253 457.303 443.026C460.119 445.799 466.136 445.589 468.233 441.647Z" fill="url(#paint28_linear_0_1)" shape-rendering="crispEdges"/>
</g>
<g filter="url(#filter53_f_0_1)">
<path d="M454.585 436.103C454.125 437.178 453.572 440.34 455.046 442.55C456.888 445.312 459.65 445.773 461.032 445.773" stroke="white" stroke-linecap="round"/>
</g>
<g filter="url(#filter54_d_0_1)">
<path fill-rule="evenodd" clip-rule="evenodd" d="M607.236 443.723C604.421 438.433 604.404 431.95 607.236 429.161C611.015 425.44 616.6 426.499 620.922 430.888C625.244 435.277 625.684 441.852 621.905 445.574C618.125 449.295 610.05 449.013 607.236 443.723ZM608.49 441.647C606.392 437.705 606.38 432.874 608.49 430.797C611.306 428.023 615.467 428.812 618.688 432.083C621.909 435.353 622.237 440.253 619.42 443.026C616.604 445.799 610.587 445.589 608.49 441.647Z" fill="url(#paint29_linear_0_1)" shape-rendering="crispEdges"/>
</g>
<g filter="url(#filter55_f_0_1)">
<path d="M622.138 436.104C622.598 437.178 623.151 440.34 621.677 442.55C619.835 445.313 617.073 445.773 615.691 445.773" stroke="white" stroke-linecap="round"/>
</g>
<g filter="url(#filter56_d_0_1)">
<path d="M525 767.876C525 766.737 525.952 765.829 527.09 765.875C539.837 766.391 548.034 766.411 561.589 765.873C562.726 765.828 563.678 766.736 563.678 767.874V785.058C563.678 786.127 562.842 787.006 561.774 787.048C558.408 787.18 551.124 787.43 544.339 787.43C537.554 787.43 530.269 787.18 526.904 787.048C525.836 787.006 525 786.127 525 785.058V767.876Z" fill="#F7E192"/>
</g>
<g filter="url(#filter57_d_0_1)">
<path fill-rule="evenodd" clip-rule="evenodd" d="M553.548 776.839C553.548 781.925 549.425 786.048 544.339 786.048C539.253 786.048 535.13 781.925 535.13 776.839C535.13 771.753 539.253 767.63 544.339 767.63C549.425 767.63 553.548 771.753 553.548 776.839ZM550.518 778.681C549.726 781.343 547.259 783.285 544.339 783.285C541.419 783.285 538.952 781.343 538.159 778.681H550.518ZM550.518 774.997H538.159C538.952 772.334 541.419 770.393 544.339 770.393C547.259 770.393 549.726 772.334 550.518 774.997Z" fill="#FDF8E6"/>
</g>
<g filter="url(#filter58_f_0_1)">
<path d="M533.288 775.458C533.288 774.076 533.748 770.393 536.972 768.551" stroke="white" stroke-linecap="round"/>
</g>
<g filter="url(#filter59_f_0_1)">
<path d="M530.065 767.169C528.99 767.016 526.749 766.801 526.381 767.169C526.013 767.538 526.228 778.681 526.381 784.206" stroke="white" stroke-linecap="round"/>
</g>
<g filter="url(#filter60_f_0_1)">
<path d="M558.152 767.169C559.227 767.016 561.468 766.801 561.836 767.169C562.204 767.538 561.989 778.681 561.836 784.206" stroke="white" stroke-linecap="round"/>
</g>
</g>
</g>
</g>
<path d="M127.24 49.84L112.6 106H96.04L87.08 69.04L77.8 106H61.24L47 49.84H61.64L69.72 90.72L79.72 49.84H94.76L104.36 90.72L112.52 49.84H127.24ZM176.181 82.96C176.181 84.24 176.101 85.5733 175.941 86.96H144.981C145.194 89.7333 146.074 91.8667 147.621 93.36C149.221 94.8 151.167 95.52 153.461 95.52C156.874 95.52 159.247 94.08 160.581 91.2H175.141C174.394 94.1333 173.034 96.7733 171.061 99.12C169.141 101.467 166.714 103.307 163.781 104.64C160.847 105.973 157.567 106.64 153.941 106.64C149.567 106.64 145.674 105.707 142.261 103.84C138.847 101.973 136.181 99.3067 134.261 95.84C132.341 92.3733 131.381 88.32 131.381 83.68C131.381 79.04 132.314 74.9867 134.181 71.52C136.101 68.0533 138.767 65.3867 142.181 63.52C145.594 61.6533 149.514 60.72 153.941 60.72C158.261 60.72 162.101 61.6267 165.461 63.44C168.821 65.2533 171.434 67.84 173.301 71.2C175.221 74.56 176.181 78.48 176.181 82.96ZM162.181 79.36C162.181 77.0133 161.381 75.1467 159.781 73.76C158.181 72.3733 156.181 71.68 153.781 71.68C151.487 71.68 149.541 72.3467 147.941 73.68C146.394 75.0133 145.434 76.9067 145.061 79.36H162.181ZM197.078 46.8V106H183.398V46.8H197.078ZM204.271 83.68C204.271 79.04 205.205 74.9867 207.071 71.52C208.991 68.0533 211.631 65.3867 214.991 63.52C218.405 61.6533 222.298 60.72 226.671 60.72C232.271 60.72 236.938 62.1867 240.671 65.12C244.458 68.0533 246.938 72.1867 248.111 77.52H233.551C232.325 74.1067 229.951 72.4 226.431 72.4C223.925 72.4 221.925 73.3867 220.431 75.36C218.938 77.28 218.191 80.0533 218.191 83.68C218.191 87.3067 218.938 90.1067 220.431 92.08C221.925 94 223.925 94.96 226.431 94.96C229.951 94.96 232.325 93.2533 233.551 89.84H248.111C246.938 95.0667 244.458 99.1733 240.671 102.16C236.885 105.147 232.218 106.64 226.671 106.64C222.298 106.64 218.405 105.707 214.991 103.84C211.631 101.973 208.991 99.3067 207.071 95.84C205.205 92.3733 204.271 88.32 204.271 83.68ZM275.749 106.64C271.375 106.64 267.429 105.707 263.909 103.84C260.442 101.973 257.695 99.3067 255.669 95.84C253.695 92.3733 252.709 88.32 252.709 83.68C252.709 79.0933 253.722 75.0667 255.749 71.6C257.775 68.08 260.549 65.3867 264.069 63.52C267.589 61.6533 271.535 60.72 275.909 60.72C280.282 60.72 284.229 61.6533 287.749 63.52C291.269 65.3867 294.042 68.08 296.069 71.6C298.095 75.0667 299.109 79.0933 299.109 83.68C299.109 88.2667 298.069 92.32 295.989 95.84C293.962 99.3067 291.162 101.973 287.589 103.84C284.069 105.707 280.122 106.64 275.749 106.64ZM275.749 94.8C278.362 94.8 280.575 93.84 282.389 91.92C284.255 90 285.189 87.2533 285.189 83.68C285.189 80.1067 284.282 77.36 282.469 75.44C280.709 73.52 278.522 72.56 275.909 72.56C273.242 72.56 271.029 73.52 269.269 75.44C267.509 77.3067 266.629 80.0533 266.629 83.68C266.629 87.2533 267.482 90 269.189 91.92C270.949 93.84 273.135 94.8 275.749 94.8ZM363.326 60.88C368.873 60.88 373.273 62.56 376.526 65.92C379.833 69.28 381.486 73.9467 381.486 79.92V106H367.886V81.76C367.886 78.88 367.113 76.6667 365.566 75.12C364.073 73.52 361.993 72.72 359.326 72.72C356.66 72.72 354.553 73.52 353.006 75.12C351.513 76.6667 350.766 78.88 350.766 81.76V106H337.166V81.76C337.166 78.88 336.393 76.6667 334.846 75.12C333.353 73.52 331.273 72.72 328.606 72.72C325.94 72.72 323.833 73.52 322.286 75.12C320.793 76.6667 320.046 78.88 320.046 81.76V106H306.366V61.36H320.046V66.96C321.433 65.0933 323.246 63.6267 325.486 62.56C327.726 61.44 330.26 60.88 333.086 60.88C336.446 60.88 339.433 61.6 342.046 63.04C344.713 64.48 346.793 66.5333 348.286 69.2C349.833 66.7467 351.94 64.7467 354.606 63.2C357.273 61.6533 360.18 60.88 363.326 60.88ZM433.134 82.96C433.134 84.24 433.054 85.5733 432.894 86.96H401.934C402.147 89.7333 403.027 91.8667 404.574 93.36C406.174 94.8 408.12 95.52 410.414 95.52C413.827 95.52 416.2 94.08 417.534 91.2H432.094C431.347 94.1333 429.987 96.7733 428.014 99.12C426.094 101.467 423.667 103.307 420.734 104.64C417.8 105.973 414.52 106.64 410.894 106.64C406.52 106.64 402.627 105.707 399.214 103.84C395.8 101.973 393.134 99.3067 391.214 95.84C389.294 92.3733 388.334 88.32 388.334 83.68C388.334 79.04 389.267 74.9867 391.134 71.52C393.054 68.0533 395.72 65.3867 399.134 63.52C402.547 61.6533 406.467 60.72 410.894 60.72C415.214 60.72 419.054 61.6267 422.414 63.44C425.774 65.2533 428.387 67.84 430.254 71.2C432.174 74.56 433.134 78.48 433.134 82.96ZM419.134 79.36C419.134 77.0133 418.334 75.1467 416.734 73.76C415.134 72.3733 413.134 71.68 410.734 71.68C408.44 71.68 406.494 72.3467 404.894 73.68C403.347 75.0133 402.387 76.9067 402.014 79.36H419.134ZM497.704 49.84V60.8H482.824V106H469.144V60.8H454.264V49.84H497.704ZM524.889 106.64C520.516 106.64 516.569 105.707 513.049 103.84C509.583 101.973 506.836 99.3067 504.809 95.84C502.836 92.3733 501.849 88.32 501.849 83.68C501.849 79.0933 502.863 75.0667 504.889 71.6C506.916 68.08 509.689 65.3867 513.209 63.52C516.729 61.6533 520.676 60.72 525.049 60.72C529.423 60.72 533.369 61.6533 536.889 63.52C540.409 65.3867 543.183 68.08 545.209 71.6C547.236 75.0667 548.249 79.0933 548.249 83.68C548.249 88.2667 547.209 92.32 545.129 95.84C543.103 99.3067 540.303 101.973 536.729 103.84C533.209 105.707 529.263 106.64 524.889 106.64ZM524.889 94.8C527.503 94.8 529.716 93.84 531.529 91.92C533.396 90 534.329 87.2533 534.329 83.68C534.329 80.1067 533.423 77.36 531.609 75.44C529.849 73.52 527.663 72.56 525.049 72.56C522.383 72.56 520.169 73.52 518.409 75.44C516.649 77.3067 515.769 80.0533 515.769 83.68C515.769 87.2533 516.623 90 518.329 91.92C520.089 93.84 522.276 94.8 524.889 94.8ZM593.5 49.84C599.42 49.84 604.593 51.0133 609.02 53.36C613.447 55.7067 616.86 59.0133 619.26 63.28C621.713 67.4933 622.94 72.3733 622.94 77.92C622.94 83.4133 621.713 88.2933 619.26 92.56C616.86 96.8267 613.42 100.133 608.94 102.48C604.513 104.827 599.367 106 593.5 106H572.46V49.84H593.5ZM592.62 94.16C597.793 94.16 601.82 92.7467 604.7 89.92C607.58 87.0933 609.02 83.0933 609.02 77.92C609.02 72.7467 607.58 68.72 604.7 65.84C601.82 62.96 597.793 61.52 592.62 61.52H586.14V94.16H592.62ZM672.665 82.96C672.665 84.24 672.585 85.5733 672.425 86.96H641.465C641.678 89.7333 642.558 91.8667 644.105 93.36C645.705 94.8 647.652 95.52 649.945 95.52C653.358 95.52 655.732 94.08 657.065 91.2H671.625C670.878 94.1333 669.518 96.7733 667.545 99.12C665.625 101.467 663.198 103.307 660.265 104.64C657.332 105.973 654.052 106.64 650.425 106.64C646.052 106.64 642.158 105.707 638.745 103.84C635.332 101.973 632.665 99.3067 630.745 95.84C628.825 92.3733 627.865 88.32 627.865 83.68C627.865 79.04 628.798 74.9867 630.665 71.52C632.585 68.0533 635.252 65.3867 638.665 63.52C642.078 61.6533 645.998 60.72 650.425 60.72C654.745 60.72 658.585 61.6267 661.945 63.44C665.305 65.2533 667.918 67.84 669.785 71.2C671.705 74.56 672.665 78.48 672.665 82.96ZM658.665 79.36C658.665 77.0133 657.865 75.1467 656.265 73.76C654.665 72.3733 652.665 71.68 650.265 71.68C647.972 71.68 646.025 72.3467 644.425 73.68C642.878 75.0133 641.918 76.9067 641.545 79.36H658.665ZM693.562 46.8V106H679.882V46.8H693.562ZM730.916 60.88C736.036 60.88 740.142 62.5867 743.236 66C746.329 69.36 747.876 74 747.876 79.92V106H734.276V81.76C734.276 78.7733 733.502 76.4533 731.956 74.8C730.409 73.1467 728.329 72.32 725.716 72.32C723.102 72.32 721.022 73.1467 719.476 74.8C717.929 76.4533 717.156 78.7733 717.156 81.76V106H703.476V46.8H717.156V67.36C718.542 65.3867 720.436 63.8133 722.836 62.64C725.236 61.4667 727.929 60.88 730.916 60.88ZM764.262 56.72C761.862 56.72 759.889 56.0267 758.342 54.64C756.849 53.2 756.102 51.44 756.102 49.36C756.102 47.2267 756.849 45.4667 758.342 44.08C759.889 42.64 761.862 41.92 764.262 41.92C766.609 41.92 768.529 42.64 770.022 44.08C771.569 45.4667 772.342 47.2267 772.342 49.36C772.342 51.44 771.569 53.2 770.022 54.64C768.529 56.0267 766.609 56.72 764.262 56.72ZM771.062 61.36V106H757.382V61.36H771.062Z" fill="#3D3D3D"/>
<path d="M861.529 49.84V106H847.849V72.32L835.289 106H824.249L811.609 72.24V106H797.929V49.84H814.089L829.849 88.72L845.449 49.84H861.529ZM913.446 82.96C913.446 84.24 913.366 85.5733 913.206 86.96H882.246C882.46 89.7333 883.34 91.8667 884.886 93.36C886.486 94.8 888.433 95.52 890.726 95.52C894.14 95.52 896.513 94.08 897.846 91.2H912.406C911.66 94.1333 910.3 96.7733 908.326 99.12C906.406 101.467 903.98 103.307 901.046 104.64C898.113 105.973 894.833 106.64 891.206 106.64C886.833 106.64 882.94 105.707 879.526 103.84C876.113 101.973 873.446 99.3067 871.526 95.84C869.606 92.3733 868.646 88.32 868.646 83.68C868.646 79.04 869.58 74.9867 871.446 71.52C873.366 68.0533 876.033 65.3867 879.446 63.52C882.86 61.6533 886.78 60.72 891.206 60.72C895.526 60.72 899.366 61.6267 902.726 63.44C906.086 65.2533 908.7 67.84 910.566 71.2C912.486 74.56 913.446 78.48 913.446 82.96ZM899.446 79.36C899.446 77.0133 898.646 75.1467 897.046 73.76C895.446 72.3733 893.446 71.68 891.046 71.68C888.753 71.68 886.806 72.3467 885.206 73.68C883.66 75.0133 882.7 76.9067 882.326 79.36H899.446ZM945.543 94.4V106H938.583C933.623 106 929.756 104.8 926.983 102.4C924.21 99.9467 922.823 95.9733 922.823 90.48V72.72H917.383V61.36H922.823V50.48H936.503V61.36H945.463V72.72H936.503V90.64C936.503 91.9733 936.823 92.9333 937.463 93.52C938.103 94.1067 939.17 94.4 940.663 94.4H945.543ZM966.843 68.8C968.443 66.3467 970.443 64.4267 972.843 63.04C975.243 61.6 977.91 60.88 980.843 60.88V75.36H977.083C973.67 75.36 971.11 76.1067 969.403 77.6C967.696 79.04 966.843 81.6 966.843 85.28V106H953.163V61.36H966.843V68.8ZM1007.7 106.64C1003.33 106.64 999.382 105.707 995.862 103.84C992.395 101.973 989.649 99.3067 987.622 95.84C985.649 92.3733 984.662 88.32 984.662 83.68C984.662 79.0933 985.675 75.0667 987.702 71.6C989.729 68.08 992.502 65.3867 996.022 63.52C999.542 61.6533 1003.49 60.72 1007.86 60.72C1012.24 60.72 1016.18 61.6533 1019.7 63.52C1023.22 65.3867 1026 68.08 1028.02 71.6C1030.05 75.0667 1031.06 79.0933 1031.06 83.68C1031.06 88.2667 1030.02 92.32 1027.94 95.84C1025.92 99.3067 1023.12 101.973 1019.54 103.84C1016.02 105.707 1012.08 106.64 1007.7 106.64ZM1007.7 94.8C1010.32 94.8 1012.53 93.84 1014.34 91.92C1016.21 90 1017.14 87.2533 1017.14 83.68C1017.14 80.1067 1016.24 77.36 1014.42 75.44C1012.66 73.52 1010.48 72.56 1007.86 72.56C1005.2 72.56 1002.98 73.52 1001.22 75.44C999.462 77.3067 998.582 80.0533 998.582 83.68C998.582 87.2533 999.435 90 1001.14 91.92C1002.9 93.84 1005.09 94.8 1007.7 94.8Z" fill="#8175D8"/>
</g>
<defs>
<filter id="filter0_d_0_1" x="141.321" y="199" width="797.358" height="797.358" filterUnits="userSpaceOnUse" color-interpolation-filters="sRGB">
<feFlood flood-opacity="0" result="BackgroundImageFix"/>
<feColorMatrix in="SourceAlpha" type="matrix" values="0 0 0 0 0 0 0 0 0 0 0 0 0 0 0 0 0 0 127 0" result="hardAlpha"/>
<feOffset dy="14"/>
<feGaussianBlur stdDeviation="17"/>
<feComposite in2="hardAlpha" operator="out"/>
<feColorMatrix type="matrix" values="0 0 0 0 0 0 0 0 0 0 0 0 0 0 0 0 0 0 0.01 0"/>
<feBlend mode="normal" in2="BackgroundImageFix" result="effect1_dropShadow_0_1"/>
<feBlend mode="normal" in="SourceGraphic" in2="effect1_dropShadow_0_1" result="shape"/>
</filter>
<filter id="filter1_d_0_1" x="250.977" y="117.311" width="578.457" height="1041.61" filterUnits="userSpaceOnUse" color-interpolation-filters="sRGB">
<feFlood flood-opacity="0" result="BackgroundImageFix"/>
<feColorMatrix in="SourceAlpha" type="matrix" values="0 0 0 0 0 0 0 0 0 0 0 0 0 0 0 0 0 0 127 0" result="hardAlpha"/>
<feOffset dy="-30"/>
<feGaussianBlur stdDeviation="51.5"/>
<feComposite in2="hardAlpha" operator="out"/>
<feColorMatrix type="matrix" values="0 0 0 0 1 0 0 0 0 1 0 0 0 0 1 0 0 0 0.35 0"/>
<feBlend mode="normal" in2="BackgroundImageFix" result="effect1_dropShadow_0_1"/>
<feBlend mode="normal" in="SourceGraphic" in2="effect1_dropShadow_0_1" result="shape"/>
</filter>
<filter id="filter2_d_0_1" x="250.977" y="117.311" width="578.457" height="1041.61" filterUnits="userSpaceOnUse" color-interpolation-filters="sRGB">
<feFlood flood-opacity="0" result="BackgroundImageFix"/>
<feColorMatrix in="SourceAlpha" type="matrix" values="0 0 0 0 0 0 0 0 0 0 0 0 0 0 0 0 0 0 127 0" result="hardAlpha"/>
<feOffset dy="-30"/>
<feGaussianBlur stdDeviation="51.5"/>
<feComposite in2="hardAlpha" operator="out"/>
<feColorMatrix type="matrix" values="0 0 0 0 1 0 0 0 0 1 0 0 0 0 1 0 0 0 0.35 0"/>
<feBlend mode="normal" in2="BackgroundImageFix" result="effect1_dropShadow_0_1"/>
<feBlend mode="normal" in="SourceGraphic" in2="effect1_dropShadow_0_1" result="shape"/>
</filter>
<filter id="filter3_f_0_1" x="420.244" y="700.879" width="74.4278" height="76.3252" filterUnits="userSpaceOnUse" color-interpolation-filters="sRGB">
<feFlood flood-opacity="0" result="BackgroundImageFix"/>
<feBlend mode="normal" in="SourceGraphic" in2="BackgroundImageFix" result="shape"/>
<feGaussianBlur stdDeviation="9" result="effect1_foregroundBlur_0_1"/>
</filter>
<filter id="filter4_f_0_1" x="590.948" y="704.657" width="74.4278" height="76.3252" filterUnits="userSpaceOnUse" color-interpolation-filters="sRGB">
<feFlood flood-opacity="0" result="BackgroundImageFix"/>
<feBlend mode="normal" in="SourceGraphic" in2="BackgroundImageFix" result="shape"/>
<feGaussianBlur stdDeviation="9" result="effect1_foregroundBlur_0_1"/>
</filter>
<filter id="filter5_f_0_1" x="455.74" y="564.839" width="214.955" height="225.085" filterUnits="userSpaceOnUse" color-interpolation-filters="sRGB">
<feFlood flood-opacity="0" result="BackgroundImageFix"/>
<feBlend mode="normal" in="SourceGraphic" in2="BackgroundImageFix" result="shape"/>
<feGaussianBlur stdDeviation="24.5" result="effect1_foregroundBlur_0_1"/>
</filter>
<filter id="filter6_f_0_1" x="416.398" y="572.08" width="32.0291" height="111.604" filterUnits="userSpaceOnUse" color-interpolation-filters="sRGB">
<feFlood flood-opacity="0" result="BackgroundImageFix"/>
<feBlend mode="normal" in="SourceGraphic" in2="BackgroundImageFix" result="shape"/>
<feGaussianBlur stdDeviation="2" result="effect1_foregroundBlur_0_1"/>
</filter>
<filter id="filter7_f_0_1" x="406.987" y="564.323" width="65.1303" height="134.239" filterUnits="userSpaceOnUse" color-interpolation-filters="sRGB">
<feFlood flood-opacity="0" result="BackgroundImageFix"/>
<feBlend mode="normal" in="SourceGraphic" in2="BackgroundImageFix" result="shape"/>
<feGaussianBlur stdDeviation="9" result="effect1_foregroundBlur_0_1"/>
</filter>
<filter id="filter8_f_0_1" x="413.412" y="576.384" width="19.2065" height="93.328" filterUnits="userSpaceOnUse" color-interpolation-filters="sRGB">
<feFlood flood-opacity="0" result="BackgroundImageFix"/>
<feBlend mode="normal" in="SourceGraphic" in2="BackgroundImageFix" result="shape"/>
<feGaussianBlur stdDeviation="1" result="effect1_foregroundBlur_0_1"/>
</filter>
<filter id="filter9_f_0_1" x="634.753" y="572.08" width="32.0291" height="111.604" filterUnits="userSpaceOnUse" color-interpolation-filters="sRGB">
<feFlood flood-opacity="0" result="BackgroundImageFix"/>
<feBlend mode="normal" in="SourceGraphic" in2="BackgroundImageFix" result="shape"/>
<feGaussianBlur stdDeviation="2" result="effect1_foregroundBlur_0_1"/>
</filter>
<filter id="filter10_f_0_1" x="611.062" y="564.323" width="65.1303" height="134.239" filterUnits="userSpaceOnUse" color-interpolation-filters="sRGB">
<feFlood flood-opacity="0" result="BackgroundImageFix"/>
<feBlend mode="normal" in="SourceGraphic" in2="BackgroundImageFix" result="shape"/>
<feGaussianBlur stdDeviation="9" result="effect1_foregroundBlur_0_1"/>
</filter>
<filter id="filter11_f_0_1" x="650.561" y="576.384" width="19.2065" height="93.328" filterUnits="userSpaceOnUse" color-interpolation-filters="sRGB">
<feFlood flood-opacity="0" result="BackgroundImageFix"/>
<feBlend mode="normal" in="SourceGraphic" in2="BackgroundImageFix" result="shape"/>
<feGaussianBlur stdDeviation="1" result="effect1_foregroundBlur_0_1"/>
</filter>
<filter id="filter12_f_0_1" x="458.153" y="487.3" width="92.8494" height="114.652" filterUnits="userSpaceOnUse" color-interpolation-filters="sRGB">
<feFlood flood-opacity="0" result="BackgroundImageFix"/>
<feBlend mode="normal" in="SourceGraphic" in2="BackgroundImageFix" result="shape"/>
<feGaussianBlur stdDeviation="11" result="effect1_foregroundBlur_0_1"/>
</filter>
<filter id="filter13_f_0_1" x="530.627" y="486.855" width="88.2035" height="108.464" filterUnits="userSpaceOnUse" color-interpolation-filters="sRGB">
<feFlood flood-opacity="0" result="BackgroundImageFix"/>
<feBlend mode="normal" in="SourceGraphic" in2="BackgroundImageFix" result="shape"/>
<feGaussianBlur stdDeviation="11" result="effect1_foregroundBlur_0_1"/>
</filter>
<filter id="filter14_f_0_1" x="469.426" y="343.819" width="44.7745" height="123.979" filterUnits="userSpaceOnUse" color-interpolation-filters="sRGB">
<feFlood flood-opacity="0" result="BackgroundImageFix"/>
<feBlend mode="normal" in="SourceGraphic" in2="BackgroundImageFix" result="shape"/>
<feGaussianBlur stdDeviation="2.5" result="effect1_foregroundBlur_0_1"/>
</filter>
<filter id="filter15_f_0_1" x="538.543" y="334.739" width="66.5439" height="124.975" filterUnits="userSpaceOnUse" color-interpolation-filters="sRGB">
<feFlood flood-opacity="0" result="BackgroundImageFix"/>
<feBlend mode="normal" in="SourceGraphic" in2="BackgroundImageFix" result="shape"/>
<feGaussianBlur stdDeviation="2.5" result="effect1_foregroundBlur_0_1"/>
</filter>
<filter id="filter16_d_0_1" x="455.757" y="389.948" width="164.1" height="113.218" filterUnits="userSpaceOnUse" color-interpolation-filters="sRGB">
<feFlood flood-opacity="0" result="BackgroundImageFix"/>
<feColorMatrix in="SourceAlpha" type="matrix" values="0 0 0 0 0 0 0 0 0 0 0 0 0 0 0 0 0 0 127 0" result="hardAlpha"/>
<feOffset dy="2"/>
<feGaussianBlur stdDeviation="6"/>
<feComposite in2="hardAlpha" operator="out"/>
<feColorMatrix type="matrix" values="0 0 0 0 0 0 0 0 0 0 0 0 0 0 0 0 0 0 0.18 0"/>
<feBlend mode="normal" in2="BackgroundImageFix" result="effect1_dropShadow_0_1"/>
<feBlend mode="normal" in="SourceGraphic" in2="effect1_dropShadow_0_1" result="shape"/>
</filter>
<filter id="filter17_f_0_1" x="471.734" y="397.458" width="137.698" height="60.2495" filterUnits="userSpaceOnUse" color-interpolation-filters="sRGB">
<feFlood flood-opacity="0" result="BackgroundImageFix"/>
<feBlend mode="normal" in="SourceGraphic" in2="BackgroundImageFix" result="shape"/>
<feGaussianBlur stdDeviation="2" result="effect1_foregroundBlur_0_1"/>
</filter>
<filter id="filter18_d_0_1" x="428.505" y="273.786" width="219.664" height="233.305" filterUnits="userSpaceOnUse" color-interpolation-filters="sRGB">
<feFlood flood-opacity="0" result="BackgroundImageFix"/>
<feColorMatrix in="SourceAlpha" type="matrix" values="0 0 0 0 0 0 0 0 0 0 0 0 0 0 0 0 0 0 127 0" result="hardAlpha"/>
<feOffset dx="1"/>
<feGaussianBlur stdDeviation="2"/>
<feComposite in2="hardAlpha" operator="out"/>
<feColorMatrix type="matrix" values="0 0 0 0 0 0 0 0 0 0 0 0 0 0 0 0 0 0 0.21 0"/>
<feBlend mode="normal" in2="BackgroundImageFix" result="effect1_dropShadow_0_1"/>
<feBlend mode="normal" in="SourceGraphic" in2="effect1_dropShadow_0_1" result="shape"/>
</filter>
<filter id="filter19_f_0_1" x="428.755" y="269.786" width="216.595" height="238.792" filterUnits="userSpaceOnUse" color-interpolation-filters="sRGB">
<feFlood flood-opacity="0" result="BackgroundImageFix"/>
<feBlend mode="normal" in="SourceGraphic" in2="BackgroundImageFix" result="shape"/>
<feGaussianBlur stdDeviation="4" result="effect1_foregroundBlur_0_1"/>
</filter>
<filter id="filter20_f_0_1" x="440.738" y="273.786" width="195.087" height="225.112" filterUnits="userSpaceOnUse" color-interpolation-filters="sRGB">
<feFlood flood-opacity="0" result="BackgroundImageFix"/>
<feBlend mode="normal" in="SourceGraphic" in2="BackgroundImageFix" result="shape"/>
<feGaussianBlur stdDeviation="2" result="effect1_foregroundBlur_0_1"/>
</filter>
<filter id="filter21_d_0_1" x="423.855" y="247.311" width="201.53" height="105.545" filterUnits="userSpaceOnUse" color-interpolation-filters="sRGB">
<feFlood flood-opacity="0" result="BackgroundImageFix"/>
<feColorMatrix in="SourceAlpha" type="matrix" values="0 0 0 0 0 0 0 0 0 0 0 0 0 0 0 0 0 0 127 0" result="hardAlpha"/>
<feOffset dy="4"/>
<feGaussianBlur stdDeviation="3.5"/>
<feComposite in2="hardAlpha" operator="out"/>
<feColorMatrix type="matrix" values="0 0 0 0 0 0 0 0 0 0 0 0 0 0 0 0 0 0 0.15 0"/>
<feBlend mode="normal" in2="BackgroundImageFix" result="effect1_dropShadow_0_1"/>
<feBlend mode="normal" in="SourceGraphic" in2="effect1_dropShadow_0_1" result="shape"/>
</filter>
<filter id="filter22_d_0_1" x="482.322" y="346.459" width="36.5481" height="26.4181" filterUnits="userSpaceOnUse" color-interpolation-filters="sRGB">
<feFlood flood-opacity="0" result="BackgroundImageFix"/>
<feColorMatrix in="SourceAlpha" type="matrix" values="0 0 0 0 0 0 0 0 0 0 0 0 0 0 0 0 0 0 127 0" result="hardAlpha"/>
<feOffset/>
<feGaussianBlur stdDeviation="2"/>
<feComposite in2="hardAlpha" operator="out"/>
<feColorMatrix type="matrix" values="0 0 0 0 0 0 0 0 0 0 0 0 0 0 0 0 0 0 0.08 0"/>
<feBlend mode="normal" in2="BackgroundImageFix" result="effect1_dropShadow_0_1"/>
<feBlend mode="normal" in="SourceGraphic" in2="effect1_dropShadow_0_1" result="shape"/>
</filter>
<filter id="filter23_d_0_1" x="545.512" y="338.824" width="53.2012" height="40.9369" filterUnits="userSpaceOnUse" color-interpolation-filters="sRGB">
<feFlood flood-opacity="0" result="BackgroundImageFix"/>
<feColorMatrix in="SourceAlpha" type="matrix" values="0 0 0 0 0 0 0 0 0 0 0 0 0 0 0 0 0 0 127 0" result="hardAlpha"/>
<feOffset/>
<feGaussianBlur stdDeviation="6"/>
<feComposite in2="hardAlpha" operator="out"/>
<feColorMatrix type="matrix" values="0 0 0 0 1 0 0 0 0 0.843137 0 0 0 0 0.823529 0 0 0 1 0"/>
<feBlend mode="normal" in2="BackgroundImageFix" result="effect1_dropShadow_0_1"/>
<feBlend mode="normal" in="SourceGraphic" in2="effect1_dropShadow_0_1" result="shape"/>
</filter>
<filter id="filter24_f_0_1" x="507.077" y="376.582" width="7.01421" height="13.8154" filterUnits="userSpaceOnUse" color-interpolation-filters="sRGB">
<feFlood flood-opacity="0" result="BackgroundImageFix"/>
<feBlend mode="normal" in="SourceGraphic" in2="BackgroundImageFix" result="shape"/>
<feGaussianBlur stdDeviation="0.5" result="effect1_foregroundBlur_0_1"/>
</filter>
<filter id="filter25_f_0_1" x="568.926" y="376.739" width="6.53206" height="13.8785" filterUnits="userSpaceOnUse" color-interpolation-filters="sRGB">
<feFlood flood-opacity="0" result="BackgroundImageFix"/>
<feBlend mode="normal" in="SourceGraphic" in2="BackgroundImageFix" result="shape"/>
<feGaussianBlur stdDeviation="0.5" result="effect1_foregroundBlur_0_1"/>
</filter>
<filter id="filter26_f_0_1" x="490.452" y="472.465" width="18.9068" height="41.9294" filterUnits="userSpaceOnUse" color-interpolation-filters="sRGB">
<feFlood flood-opacity="0" result="BackgroundImageFix"/>
<feBlend mode="normal" in="SourceGraphic" in2="BackgroundImageFix" result="shape"/>
<feGaussianBlur stdDeviation="3" result="effect1_foregroundBlur_0_1"/>
</filter>
<filter id="filter27_f_0_1" x="471.35" y="396.849" width="62.9248" height="51.8585" filterUnits="userSpaceOnUse" color-interpolation-filters="sRGB">
<feFlood flood-opacity="0" result="BackgroundImageFix"/>
<feBlend mode="normal" in="SourceGraphic" in2="BackgroundImageFix" result="shape"/>
<feGaussianBlur stdDeviation="4" result="effect1_foregroundBlur_0_1"/>
</filter>
<filter id="filter28_f_0_1" x="545.018" y="396.921" width="63.3542" height="51.7875" filterUnits="userSpaceOnUse" color-interpolation-filters="sRGB">
<feFlood flood-opacity="0" result="BackgroundImageFix"/>
<feBlend mode="normal" in="SourceGraphic" in2="BackgroundImageFix" result="shape"/>
<feGaussianBlur stdDeviation="4" result="effect1_foregroundBlur_0_1"/>
</filter>
<filter id="filter29_f_0_1" x="528.13" y="396.872" width="25.0509" height="38.8645" filterUnits="userSpaceOnUse" color-interpolation-filters="sRGB">
<feFlood flood-opacity="0" result="BackgroundImageFix"/>
<feBlend mode="normal" in="SourceGraphic" in2="BackgroundImageFix" result="shape"/>
<feGaussianBlur stdDeviation="3.5" result="effect1_foregroundBlur_0_1"/>
</filter>
<filter id="filter30_f_0_1" x="356.762" y="526.641" width="66.8338" height="128.443" filterUnits="userSpaceOnUse" color-interpolation-filters="sRGB">
<feFlood flood-opacity="0" result="BackgroundImageFix"/>
<feBlend mode="normal" in="SourceGraphic" in2="BackgroundImageFix" result="shape"/>
<feGaussianBlur stdDeviation="4" result="effect1_foregroundBlur_0_1"/>
</filter>
<filter id="filter31_f_0_1" x="406.327" y="497.557" width="67.1466" height="45.6229" filterUnits="userSpaceOnUse" color-interpolation-filters="sRGB">
<feFlood flood-opacity="0" result="BackgroundImageFix"/>
<feBlend mode="normal" in="SourceGraphic" in2="BackgroundImageFix" result="shape"/>
<feGaussianBlur stdDeviation="4.5" result="effect1_foregroundBlur_0_1"/>
</filter>
<filter id="filter32_d_0_1" x="367.352" y="646.74" width="73.0962" height="33.0367" filterUnits="userSpaceOnUse" color-interpolation-filters="sRGB">
<feFlood flood-opacity="0" result="BackgroundImageFix"/>
<feColorMatrix in="SourceAlpha" type="matrix" values="0 0 0 0 0 0 0 0 0 0 0 0 0 0 0 0 0 0 127 0" result="hardAlpha"/>
<feOffset dy="-1"/>
<feGaussianBlur stdDeviation="4"/>
<feComposite in2="hardAlpha" operator="out"/>
<feColorMatrix type="matrix" values="0 0 0 0 0 0 0 0 0 0 0 0 0 0 0 0 0 0 0.35 0"/>
<feBlend mode="normal" in2="BackgroundImageFix" result="effect1_dropShadow_0_1"/>
<feBlend mode="normal" in="SourceGraphic" in2="effect1_dropShadow_0_1" result="shape"/>
</filter>
<filter id="filter33_f_0_1" x="595.128" y="494.25" width="132.246" height="159.438" filterUnits="userSpaceOnUse" color-interpolation-filters="sRGB">
<feFlood flood-opacity="0" result="BackgroundImageFix"/>
<feBlend mode="normal" in="SourceGraphic" in2="BackgroundImageFix" result="shape"/>
<feGaussianBlur stdDeviation="4.5" result="effect1_foregroundBlur_0_1"/>
</filter>
<filter id="filter34_d_0_1" x="326.977" y="496.886" width="426.457" height="288.197" filterUnits="userSpaceOnUse" color-interpolation-filters="sRGB">
<feFlood flood-opacity="0" result="BackgroundImageFix"/>
<feColorMatrix in="SourceAlpha" type="matrix" values="0 0 0 0 0 0 0 0 0 0 0 0 0 0 0 0 0 0 127 0" result="hardAlpha"/>
<feOffset dy="4"/>
<feGaussianBlur stdDeviation="13.5"/>
<feComposite in2="hardAlpha" operator="out"/>
<feColorMatrix type="matrix" values="0 0 0 0 0 0 0 0 0 0 0 0 0 0 0 0 0 0 0.1 0"/>
<feBlend mode="normal" in2="BackgroundImageFix" result="effect1_dropShadow_0_1"/>
<feBlend mode="normal" in="SourceGraphic" in2="effect1_dropShadow_0_1" result="shape"/>
</filter>
<filter id="filter35_f_0_1" x="348.788" y="609.522" width="184.756" height="151.828" filterUnits="userSpaceOnUse" color-interpolation-filters="sRGB">
<feFlood flood-opacity="0" result="BackgroundImageFix"/>
<feBlend mode="normal" in="SourceGraphic" in2="BackgroundImageFix" result="shape"/>
<feGaussianBlur stdDeviation="4" result="effect1_foregroundBlur_0_1"/>
</filter>
<filter id="filter36_f_0_1" x="348.842" y="655.895" width="40.6544" height="88.7452" filterUnits="userSpaceOnUse" color-interpolation-filters="sRGB">
<feFlood flood-opacity="0" result="BackgroundImageFix"/>
<feBlend mode="normal" in="SourceGraphic" in2="BackgroundImageFix" result="shape"/>
<feGaussianBlur stdDeviation="5" result="effect1_foregroundBlur_0_1"/>
</filter>
<filter id="filter37_di_0_1" x="472.339" y="511.886" width="77.2583" height="185.729" filterUnits="userSpaceOnUse" color-interpolation-filters="sRGB">
<feFlood flood-opacity="0" result="BackgroundImageFix"/>
<feColorMatrix in="SourceAlpha" type="matrix" values="0 0 0 0 0 0 0 0 0 0 0 0 0 0 0 0 0 0 127 0" result="hardAlpha"/>
<feOffset/>
<feGaussianBlur stdDeviation="4"/>
<feComposite in2="hardAlpha" operator="out"/>
<feColorMatrix type="matrix" values="0 0 0 0 0 0 0 0 0 0 0 0 0 0 0 0 0 0 0.07 0"/>
<feBlend mode="normal" in2="BackgroundImageFix" result="effect1_dropShadow_0_1"/>
<feBlend mode="normal" in="SourceGraphic" in2="effect1_dropShadow_0_1" result="shape"/>
<feColorMatrix in="SourceAlpha" type="matrix" values="0 0 0 0 0 0 0 0 0 0 0 0 0 0 0 0 0 0 127 0" result="hardAlpha"/>
<feOffset dx="5" dy="1"/>
<feGaussianBlur stdDeviation="6.5"/>
<feComposite in2="hardAlpha" operator="arithmetic" k2="-1" k3="1"/>
<feColorMatrix type="matrix" values="0 0 0 0 0 0 0 0 0 0 0 0 0 0 0 0 0 0 0.07 0"/>
<feBlend mode="normal" in2="shape" result="effect2_innerShadow_0_1"/>
</filter>
<filter id="filter38_f_0_1" x="479.373" y="652.575" width="33.9936" height="36.9376" filterUnits="userSpaceOnUse" color-interpolation-filters="sRGB">
<feFlood flood-opacity="0" result="BackgroundImageFix"/>
<feBlend mode="normal" in="SourceGraphic" in2="BackgroundImageFix" result="shape"/>
<feGaussianBlur stdDeviation="1" result="effect1_foregroundBlur_0_1"/>
</filter>
<filter id="filter39_f_0_1" x="546.866" y="609.522" width="184.756" height="151.828" filterUnits="userSpaceOnUse" color-interpolation-filters="sRGB">
<feFlood flood-opacity="0" result="BackgroundImageFix"/>
<feBlend mode="normal" in="SourceGraphic" in2="BackgroundImageFix" result="shape"/>
<feGaussianBlur stdDeviation="4" result="effect1_foregroundBlur_0_1"/>
</filter>
<filter id="filter40_f_0_1" x="690.914" y="655.895" width="40.6544" height="88.7452" filterUnits="userSpaceOnUse" color-interpolation-filters="sRGB">
<feFlood flood-opacity="0" result="BackgroundImageFix"/>
<feBlend mode="normal" in="SourceGraphic" in2="BackgroundImageFix" result="shape"/>
<feGaussianBlur stdDeviation="5" result="effect1_foregroundBlur_0_1"/>
</filter>
<filter id="filter41_di_0_1" x="530.814" y="511.887" width="77.2583" height="185.729" filterUnits="userSpaceOnUse" color-interpolation-filters="sRGB">
<feFlood flood-opacity="0" result="BackgroundImageFix"/>
<feColorMatrix in="SourceAlpha" type="matrix" values="0 0 0 0 0 0 0 0 0 0 0 0 0 0 0 0 0 0 127 0" result="hardAlpha"/>
<feOffset/>
<feGaussianBlur stdDeviation="4"/>
<feComposite in2="hardAlpha" operator="out"/>
<feColorMatrix type="matrix" values="0 0 0 0 0 0 0 0 0 0 0 0 0 0 0 0 0 0 0.07 0"/>
<feBlend mode="normal" in2="BackgroundImageFix" result="effect1_dropShadow_0_1"/>
<feBlend mode="normal" in="SourceGraphic" in2="effect1_dropShadow_0_1" result="shape"/>
<feColorMatrix in="SourceAlpha" type="matrix" values="0 0 0 0 0 0 0 0 0 0 0 0 0 0 0 0 0 0 127 0" result="hardAlpha"/>
<feOffset dx="5" dy="1"/>
<feGaussianBlur stdDeviation="6.5"/>
<feComposite in2="hardAlpha" operator="arithmetic" k2="-1" k3="1"/>
<feColorMatrix type="matrix" values="0 0 0 0 0 0 0 0 0 0 0 0 0 0 0 0 0 0 0.07 0"/>
<feBlend mode="normal" in2="shape" result="effect2_innerShadow_0_1"/>
</filter>
<filter id="filter42_f_0_1" x="567.044" y="652.575" width="33.9936" height="36.9376" filterUnits="userSpaceOnUse" color-interpolation-filters="sRGB">
<feFlood flood-opacity="0" result="BackgroundImageFix"/>
<feBlend mode="normal" in="SourceGraphic" in2="BackgroundImageFix" result="shape"/>
<feGaussianBlur stdDeviation="1" result="effect1_foregroundBlur_0_1"/>
</filter>
<filter id="filter43_f_0_1" x="351.664" y="754.681" width="123.663" height="361.568" filterUnits="userSpaceOnUse" color-interpolation-filters="sRGB">
<feFlood flood-opacity="0" result="BackgroundImageFix"/>
<feBlend mode="normal" in="SourceGraphic" in2="BackgroundImageFix" result="shape"/>
<feGaussianBlur stdDeviation="12" result="effect1_foregroundBlur_0_1"/>
</filter>
<filter id="filter44_f_0_1" x="616.113" y="751.458" width="129.581" height="364.791" filterUnits="userSpaceOnUse" color-interpolation-filters="sRGB">
<feFlood flood-opacity="0" result="BackgroundImageFix"/>
<feBlend mode="normal" in="SourceGraphic" in2="BackgroundImageFix" result="shape"/>
<feGaussianBlur stdDeviation="12" result="effect1_foregroundBlur_0_1"/>
</filter>
<filter id="filter45_f_0_1" x="397" y="739.35" width="322.046" height="385.176" filterUnits="userSpaceOnUse" color-interpolation-filters="sRGB">
<feFlood flood-opacity="0" result="BackgroundImageFix"/>
<feBlend mode="normal" in="SourceGraphic" in2="BackgroundImageFix" result="shape"/>
<feGaussianBlur stdDeviation="24.5" result="effect1_foregroundBlur_0_1"/>
</filter>
<filter id="filter46_f_0_1" x="426.587" y="712.294" width="236.705" height="79.652" filterUnits="userSpaceOnUse" color-interpolation-filters="sRGB">
<feFlood flood-opacity="0" result="BackgroundImageFix"/>
<feBlend mode="normal" in="SourceGraphic" in2="BackgroundImageFix" result="shape"/>
<feGaussianBlur stdDeviation="14" result="effect1_foregroundBlur_0_1"/>
</filter>
<filter id="filter47_d_0_1" x="439.867" y="746.356" width="211.246" height="57.9845" filterUnits="userSpaceOnUse" color-interpolation-filters="sRGB">
<feFlood flood-opacity="0" result="BackgroundImageFix"/>
<feColorMatrix in="SourceAlpha" type="matrix" values="0 0 0 0 0 0 0 0 0 0 0 0 0 0 0 0 0 0 127 0" result="hardAlpha"/>
<feOffset dy="4"/>
<feGaussianBlur stdDeviation="5.5"/>
<feComposite in2="hardAlpha" operator="out"/>
<feColorMatrix type="matrix" values="0 0 0 0 0 0 0 0 0 0 0 0 0 0 0 0 0 0 0.25 0"/>
<feBlend mode="normal" in2="BackgroundImageFix" result="effect1_dropShadow_0_1"/>
<feBlend mode="normal" in="SourceGraphic" in2="effect1_dropShadow_0_1" result="shape"/>
</filter>
<filter id="filter48_f_0_1" x="451.471" y="756.735" width="165.065" height="24.6932" filterUnits="userSpaceOnUse" color-interpolation-filters="sRGB">
<feFlood flood-opacity="0" result="BackgroundImageFix"/>
<feBlend mode="normal" in="SourceGraphic" in2="BackgroundImageFix" result="shape"/>
<feGaussianBlur stdDeviation="2" result="effect1_foregroundBlur_0_1"/>
</filter>
<filter id="filter49_f_0_1" x="408.368" y="768.563" width="75.0323" height="333.362" filterUnits="userSpaceOnUse" color-interpolation-filters="sRGB">
<feFlood flood-opacity="0" result="BackgroundImageFix"/>
<feBlend mode="normal" in="SourceGraphic" in2="BackgroundImageFix" result="shape"/>
<feGaussianBlur stdDeviation="8" result="effect1_foregroundBlur_0_1"/>
</filter>
<filter id="filter50_f_0_1" x="602.612" y="768.563" width="75.0323" height="333.362" filterUnits="userSpaceOnUse" color-interpolation-filters="sRGB">
<feFlood flood-opacity="0" result="BackgroundImageFix"/>
<feBlend mode="normal" in="SourceGraphic" in2="BackgroundImageFix" result="shape"/>
<feGaussianBlur stdDeviation="8" result="effect1_foregroundBlur_0_1"/>
</filter>
<filter id="filter51_f_0_1" x="618.588" y="770.66" width="108.591" height="324.292" filterUnits="userSpaceOnUse" color-interpolation-filters="sRGB">
<feFlood flood-opacity="0" result="BackgroundImageFix"/>
<feBlend mode="normal" in="SourceGraphic" in2="BackgroundImageFix" result="shape"/>
<feGaussianBlur stdDeviation="8" result="effect1_foregroundBlur_0_1"/>
</filter>
<filter id="filter52_d_0_1" x="448.248" y="426.894" width="27.3564" height="29.1809" filterUnits="userSpaceOnUse" color-interpolation-filters="sRGB">
<feFlood flood-opacity="0" result="BackgroundImageFix"/>
<feColorMatrix in="SourceAlpha" type="matrix" values="0 0 0 0 0 0 0 0 0 0 0 0 0 0 0 0 0 0 127 0" result="hardAlpha"/>
<feOffset dy="4"/>
<feGaussianBlur stdDeviation="2"/>
<feComposite in2="hardAlpha" operator="out"/>
<feColorMatrix type="matrix" values="0 0 0 0 0 0 0 0 0 0 0 0 0 0 0 0 0 0 0.25 0"/>
<feBlend mode="normal" in2="BackgroundImageFix" result="effect1_dropShadow_0_1"/>
<feBlend mode="normal" in="SourceGraphic" in2="effect1_dropShadow_0_1" result="shape"/>
</filter>
<filter id="filter53_f_0_1" x="452.59" y="434.603" width="9.94174" height="12.6697" filterUnits="userSpaceOnUse" color-interpolation-filters="sRGB">
<feFlood flood-opacity="0" result="BackgroundImageFix"/>
<feBlend mode="normal" in="SourceGraphic" in2="BackgroundImageFix" result="shape"/>
<feGaussianBlur stdDeviation="0.5" result="effect1_foregroundBlur_0_1"/>
</filter>
<filter id="filter54_d_0_1" x="601.118" y="426.894" width="27.3564" height="29.1809" filterUnits="userSpaceOnUse" color-interpolation-filters="sRGB">
<feFlood flood-opacity="0" result="BackgroundImageFix"/>
<feColorMatrix in="SourceAlpha" type="matrix" values="0 0 0 0 0 0 0 0 0 0 0 0 0 0 0 0 0 0 127 0" result="hardAlpha"/>
<feOffset dy="4"/>
<feGaussianBlur stdDeviation="2"/>
<feComposite in2="hardAlpha" operator="out"/>
<feColorMatrix type="matrix" values="0 0 0 0 0 0 0 0 0 0 0 0 0 0 0 0 0 0 0.25 0"/>
<feBlend mode="normal" in2="BackgroundImageFix" result="effect1_dropShadow_0_1"/>
<feBlend mode="normal" in="SourceGraphic" in2="effect1_dropShadow_0_1" result="shape"/>
</filter>
<filter id="filter55_f_0_1" x="614.191" y="434.603" width="9.94174" height="12.6697" filterUnits="userSpaceOnUse" color-interpolation-filters="sRGB">
<feFlood flood-opacity="0" result="BackgroundImageFix"/>
<feBlend mode="normal" in="SourceGraphic" in2="BackgroundImageFix" result="shape"/>
<feGaussianBlur stdDeviation="0.5" result="effect1_foregroundBlur_0_1"/>
</filter>
<filter id="filter56_d_0_1" x="521" y="761.872" width="46.6781" height="29.5577" filterUnits="userSpaceOnUse" color-interpolation-filters="sRGB">
<feFlood flood-opacity="0" result="BackgroundImageFix"/>
<feColorMatrix in="SourceAlpha" type="matrix" values="0 0 0 0 0 0 0 0 0 0 0 0 0 0 0 0 0 0 127 0" result="hardAlpha"/>
<feOffset/>
<feGaussianBlur stdDeviation="2"/>
<feComposite in2="hardAlpha" operator="out"/>
<feColorMatrix type="matrix" values="0 0 0 0 0 0 0 0 0 0 0 0 0 0 0 0 0 0 0.25 0"/>
<feBlend mode="normal" in2="BackgroundImageFix" result="effect1_dropShadow_0_1"/>
<feBlend mode="normal" in="SourceGraphic" in2="effect1_dropShadow_0_1" result="shape"/>
</filter>
<filter id="filter57_d_0_1" x="531.13" y="766.63" width="26.4181" height="26.4181" filterUnits="userSpaceOnUse" color-interpolation-filters="sRGB">
<feFlood flood-opacity="0" result="BackgroundImageFix"/>
<feColorMatrix in="SourceAlpha" type="matrix" values="0 0 0 0 0 0 0 0 0 0 0 0 0 0 0 0 0 0 127 0" result="hardAlpha"/>
<feOffset dy="3"/>
<feGaussianBlur stdDeviation="2"/>
<feComposite in2="hardAlpha" operator="out"/>
<feColorMatrix type="matrix" values="0 0 0 0 0 0 0 0 0 0 0 0 0 0 0 0 0 0 0.25 0"/>
<feBlend mode="normal" in2="BackgroundImageFix" result="effect1_dropShadow_0_1"/>
<feBlend mode="normal" in="SourceGraphic" in2="effect1_dropShadow_0_1" result="shape"/>
</filter>
<filter id="filter58_f_0_1" x="531.788" y="767.051" width="6.68371" height="9.90698" filterUnits="userSpaceOnUse" color-interpolation-filters="sRGB">
<feFlood flood-opacity="0" result="BackgroundImageFix"/>
<feBlend mode="normal" in="SourceGraphic" in2="BackgroundImageFix" result="shape"/>
<feGaussianBlur stdDeviation="0.5" result="effect1_foregroundBlur_0_1"/>
</filter>
<filter id="filter59_f_0_1" x="524.678" y="765.466" width="6.88708" height="20.2402" filterUnits="userSpaceOnUse" color-interpolation-filters="sRGB">
<feFlood flood-opacity="0" result="BackgroundImageFix"/>
<feBlend mode="normal" in="SourceGraphic" in2="BackgroundImageFix" result="shape"/>
<feGaussianBlur stdDeviation="0.5" result="effect1_foregroundBlur_0_1"/>
</filter>
<filter id="filter60_f_0_1" x="556.652" y="765.466" width="6.88708" height="20.2402" filterUnits="userSpaceOnUse" color-interpolation-filters="sRGB">
<feFlood flood-opacity="0" result="BackgroundImageFix"/>
<feBlend mode="normal" in="SourceGraphic" in2="BackgroundImageFix" result="shape"/>
<feGaussianBlur stdDeviation="0.5" result="effect1_foregroundBlur_0_1"/>
</filter>
<radialGradient id="paint0_radial_0_1" cx="0" cy="0" r="1" gradientUnits="userSpaceOnUse" gradientTransform="translate(537.514 448.743) rotate(90.4619) scale(54.5882 125.277)">
<stop offset="0.544792" stop-color="#161616"/>
<stop offset="0.89375" stop-color="#525252"/>
<stop offset="1" stop-color="#696969"/>
</radialGradient>
<linearGradient id="paint1_linear_0_1" x1="498.293" y1="480.307" x2="572.887" y2="489.977" gradientUnits="userSpaceOnUse">
<stop stop-color="#DA9E94"/>
<stop offset="0.497917" stop-color="#EBABA0"/>
<stop offset="1" stop-color="#FFD7D2"/>
</linearGradient>
<linearGradient id="paint2_linear_0_1" x1="431.067" y1="620.745" x2="413.57" y2="619.364" gradientUnits="userSpaceOnUse">
<stop stop-color="#8175D8"/>
<stop offset="1" stop-color="#8175D8" stop-opacity="0"/>
</linearGradient>
<linearGradient id="paint3_linear_0_1" x1="652.112" y1="620.745" x2="669.609" y2="619.364" gradientUnits="userSpaceOnUse">
<stop stop-color="#8175D8"/>
<stop offset="1" stop-color="#8175D8" stop-opacity="0"/>
</linearGradient>
<linearGradient id="paint4_linear_0_1" x1="601.435" y1="521.748" x2="563.499" y2="505.959" gradientUnits="userSpaceOnUse">
<stop stop-color="#963131"/>
<stop offset="0.34567" stop-color="#F36464"/>
<stop offset="0.5364" stop-color="#FF7B7B"/>
<stop offset="0.763597" stop-color="#D85F5F"/>
<stop offset="1" stop-color="#963131"/>
</linearGradient>
<linearGradient id="paint5_linear_0_1" x1="546.181" y1="533.72" x2="516.251" y2="556.742" gradientUnits="userSpaceOnUse">
<stop stop-color="#963131"/>
<stop offset="0.34567" stop-color="#F36464"/>
<stop offset="0.5364" stop-color="#FF7B7B"/>
<stop offset="0.763597" stop-color="#D85F5F"/>
<stop offset="1" stop-color="#963131"/>
</linearGradient>
<linearGradient id="paint6_linear_0_1" x1="466.357" y1="398.078" x2="606.37" y2="393.591" gradientUnits="userSpaceOnUse">
<stop stop-color="#EBABA0"/>
<stop offset="1" stop-color="#FFD7D2"/>
</linearGradient>
<radialGradient id="paint7_radial_0_1" cx="0" cy="0" r="1" gradientUnits="userSpaceOnUse" gradientTransform="translate(540.533 434.411) rotate(86.7991) scale(44.1483 71.0787)">
<stop stop-color="#4F4F4F"/>
<stop offset="1" stop-color="#6F6F6F"/>
</radialGradient>
<linearGradient id="paint8_linear_0_1" x1="519.984" y1="272.256" x2="528.35" y2="344.614" gradientUnits="userSpaceOnUse">
<stop stop-color="#A092F7"/>
<stop offset="1" stop-color="#413196"/>
</linearGradient>
<linearGradient id="paint9_linear_0_1" x1="501.441" y1="367.975" x2="497.444" y2="358.502" gradientUnits="userSpaceOnUse">
<stop offset="0.167659" stop-color="#161616"/>
<stop offset="1" stop-color="#525252"/>
</linearGradient>
<linearGradient id="paint10_linear_0_1" x1="571.687" y1="367.437" x2="575.002" y2="357.93" gradientUnits="userSpaceOnUse">
<stop offset="0.167659" stop-color="#161616"/>
<stop offset="1" stop-color="#525252"/>
</linearGradient>
<linearGradient id="paint11_linear_0_1" x1="511.754" y1="383.781" x2="501.434" y2="385.748" gradientUnits="userSpaceOnUse">
<stop stop-color="#525252"/>
<stop offset="1" stop-color="#161616"/>
</linearGradient>
<linearGradient id="paint12_linear_0_1" x1="575.717" y1="381.927" x2="565.397" y2="383.894" gradientUnits="userSpaceOnUse">
<stop stop-color="#525252"/>
<stop offset="1" stop-color="#161616"/>
</linearGradient>
<linearGradient id="paint13_linear_0_1" x1="361.889" y1="558.535" x2="540.503" y2="576.695" gradientUnits="userSpaceOnUse">
<stop stop-color="#DA9E94"/>
<stop offset="0.497917" stop-color="#EBABA0"/>
<stop offset="1" stop-color="#FFD7D2"/>
</linearGradient>
<linearGradient id="paint14_linear_0_1" x1="429.225" y1="672.777" x2="400.217" y2="668.172" gradientUnits="userSpaceOnUse">
<stop stop-color="#CC9187"/>
<stop offset="1" stop-color="#EBABA0"/>
</linearGradient>
<linearGradient id="paint15_linear_0_1" x1="421.398" y1="676" x2="426.002" y2="693.037" gradientUnits="userSpaceOnUse">
<stop stop-color="#FACCC5"/>
<stop offset="1" stop-color="#FFD8D3" stop-opacity="0"/>
</linearGradient>
<linearGradient id="paint16_linear_0_1" x1="421.398" y1="676" x2="447.183" y2="717.441" gradientUnits="userSpaceOnUse">
<stop stop-color="#FACCC5"/>
<stop offset="1" stop-color="#FFD8D3" stop-opacity="0"/>
</linearGradient>
<linearGradient id="paint17_linear_0_1" x1="373.971" y1="654.359" x2="394.691" y2="665.409" gradientUnits="userSpaceOnUse">
<stop stop-color="#F8C9C2"/>
<stop offset="1" stop-color="#EDB2A8" stop-opacity="0"/>
</linearGradient>
<linearGradient id="paint18_linear_0_1" x1="520.395" y1="551.217" x2="527.763" y2="552.598" gradientUnits="userSpaceOnUse">
<stop stop-color="#C4C4C4" stop-opacity="0.2"/>
<stop offset="1" stop-color="#C4C4C4" stop-opacity="0"/>
</linearGradient>
<linearGradient id="paint19_linear_0_1" x1="531.446" y1="551.677" x2="535.59" y2="552.138" gradientUnits="userSpaceOnUse">
<stop stop-color="#C4C4C4" stop-opacity="0.2"/>
<stop offset="1" stop-color="#C4C4C4" stop-opacity="0"/>
</linearGradient>
<linearGradient id="paint20_linear_0_1" x1="718.522" y1="558.535" x2="539.908" y2="576.695" gradientUnits="userSpaceOnUse">
<stop stop-color="#DA9E94"/>
<stop offset="0.497917" stop-color="#EBABA0"/>
<stop offset="1" stop-color="#FFD7D2"/>
</linearGradient>
<linearGradient id="paint21_linear_0_1" x1="651.185" y1="672.777" x2="680.194" y2="668.172" gradientUnits="userSpaceOnUse">
<stop stop-color="#CC9187"/>
<stop offset="1" stop-color="#EBABA0"/>
</linearGradient>
<linearGradient id="paint22_linear_0_1" x1="659.013" y1="676" x2="654.408" y2="693.037" gradientUnits="userSpaceOnUse">
<stop stop-color="#FACCC5"/>
<stop offset="1" stop-color="#FFD8D3" stop-opacity="0"/>
</linearGradient>
<linearGradient id="paint23_linear_0_1" x1="659.013" y1="676" x2="633.227" y2="717.441" gradientUnits="userSpaceOnUse">
<stop stop-color="#FACCC5"/>
<stop offset="1" stop-color="#FFD8D3" stop-opacity="0"/>
</linearGradient>
<linearGradient id="paint24_linear_0_1" x1="706.44" y1="654.359" x2="685.719" y2="665.409" gradientUnits="userSpaceOnUse">
<stop stop-color="#F8C9C2"/>
<stop offset="1" stop-color="#EDB2A8" stop-opacity="0"/>
</linearGradient>
<linearGradient id="paint25_linear_0_1" x1="560.016" y1="551.217" x2="552.648" y2="552.598" gradientUnits="userSpaceOnUse">
<stop stop-color="#C4C4C4" stop-opacity="0.2"/>
<stop offset="1" stop-color="#C4C4C4" stop-opacity="0"/>
</linearGradient>
<linearGradient id="paint26_linear_0_1" x1="548.965" y1="551.677" x2="544.82" y2="552.138" gradientUnits="userSpaceOnUse">
<stop stop-color="#C4C4C4" stop-opacity="0.2"/>
<stop offset="1" stop-color="#C4C4C4" stop-opacity="0"/>
</linearGradient>
<linearGradient id="paint27_linear_0_1" x1="458.694" y1="767.63" x2="639.192" y2="761.184" gradientUnits="userSpaceOnUse">
<stop stop-color="#161616"/>
<stop offset="1" stop-color="#525252"/>
</linearGradient>
<linearGradient id="paint28_linear_0_1" x1="463.192" y1="436.073" x2="467.781" y2="435.367" gradientUnits="userSpaceOnUse">
<stop stop-color="#F7E192"/>
<stop offset="1" stop-color="#F7E192" stop-opacity="0"/>
</linearGradient>
<linearGradient id="paint29_linear_0_1" x1="613.531" y1="436.073" x2="608.942" y2="435.367" gradientUnits="userSpaceOnUse">
<stop stop-color="#F7E192"/>
<stop offset="1" stop-color="#F7E192" stop-opacity="0"/>
</linearGradient>
<clipPath id="clip0_0_1">
<rect width="1080" height="1080" fill="white"/>
</clipPath>
</defs>
</svg>
