<svg width="466" height="505" viewBox="0 0 466 505" fill="none" xmlns="http://www.w3.org/2000/svg">
<path d="M437.628 0.5H29.5482C14.2576 0.5 2.54938 14.1041 4.82712 29.2241L66.2437 436.917C72.1398 476.056 105.771 505 145.351 505H331.508C371.798 505 405.801 475.038 410.871 435.068L462.429 28.6462C464.324 13.7101 452.684 0.5 437.628 0.5Z" fill="#D9D9D9"/>
<path d="M388.805 36H81.6256C72.9272 36 66.315 43.8174 67.7579 52.3952L114.196 328.465C117.841 350.132 136.601 366 158.573 366H319.18C341.594 366 360.591 349.504 363.735 327.311L402.729 52.0348C403.928 43.5683 397.356 36 388.805 36Z" fill="#7C7C7C"/>
<path d="M410.889 0H47.2792C45.0432 0 43.079 1.48465 42.4689 3.63588L26.3048 60.6359C25.3996 63.8278 27.7973 67 31.1151 67H83.2C83.918 67 84.5 66.418 84.5 65.7V50.8545C84.5 46.9886 87.634 43.8545 91.5 43.8545H377.5C381.366 43.8545 384.5 46.9886 384.5 50.8545V65.7C384.5 66.418 385.082 67 385.8 67H438.964C442.668 67 445.086 63.1134 443.449 59.7908L415.375 2.79075C414.533 1.08211 412.794 0 410.889 0Z" fill="#1E1E1E"/>
</svg>
